<?xml version="1.0" standalone="no"?>
<!DOCTYPE svg PUBLIC "-//W3C//DTD SVG 20010904//EN"
 "http://www.w3.org/TR/2001/REC-SVG-20010904/DTD/svg10.dtd">
<svg version="1.0" xmlns="http://www.w3.org/2000/svg"
 width="1100.000000pt" height="1100.000000pt" viewBox="0 0 1100.000000 1100.000000"
 preserveAspectRatio="xMidYMid meet">
<metadata>
Created by potrace 1.16, written by Peter Selinger 2001-2019
</metadata>
<g transform="translate(0.000000,1100.000000) scale(0.100000,-0.100000)"
fill="#000000" stroke="none">
<path d="M5619 10839 c-8 -5 -36 -9 -64 -9 -54 0 -117 -16 -209 -52 -80 -31
-150 -98 -166 -158 -17 -67 -22 -79 -27 -57 -3 9 -11 17 -18 17 -11 0 -13 8
-9 29 4 20 2 30 -10 34 -11 4 -16 1 -16 -11 -1 -16 -1 -16 -14 0 -7 10 -17 14
-21 10 -5 -4 -5 1 -2 11 5 12 3 16 -4 11 -7 -4 -21 -7 -33 -8 -15 -1 -23 -10
-27 -31 -4 -16 -7 -22 -8 -12 0 9 -7 17 -14 17 -19 0 -50 -37 -42 -49 3 -6 1
-12 -4 -12 -6 -1 -15 -3 -21 -4 -5 -1 -13 -3 -17 -4 -5 -1 -1 -6 7 -11 13 -9
13 -12 -4 -21 -10 -6 -27 -20 -37 -30 -11 -11 -19 -15 -19 -10 0 5 7 17 16 25
8 9 11 16 5 16 -17 0 -30 -35 -24 -60 4 -13 2 -21 -3 -17 -6 3 -11 -5 -12 -18
-1 -13 3 -27 9 -30 7 -5 6 -11 -2 -21 -9 -11 -8 -14 5 -14 9 0 16 -5 16 -12 0
-6 10 -2 23 10 72 67 135 41 173 -73 4 -12 8 -15 11 -7 3 6 9 12 14 12 6 0 7
-6 3 -12 -5 -7 -9 -42 -11 -78 -5 -90 -6 -100 -14 -100 -4 0 -5 -9 -2 -20 3
-11 1 -20 -5 -20 -5 0 -13 -7 -16 -16 -4 -9 -2 -13 5 -8 8 4 7 0 0 -15 -7 -11
-10 -21 -7 -21 3 0 -6 -12 -20 -27 -13 -14 -29 -44 -35 -67 -7 -23 -27 -88
-45 -146 -18 -58 -35 -131 -36 -162 -2 -32 -7 -58 -11 -58 -5 0 -6 -4 -3 -9 3
-5 -10 -67 -29 -137 -49 -178 -49 -176 -15 -109 16 33 30 55 30 49 0 -6 -6
-24 -14 -40 -19 -37 -52 -160 -67 -249 -22 -132 -7 -292 43 -447 21 -67 22
-68 3 -82 -11 -7 -44 -19 -75 -26 -69 -15 -96 -29 -58 -30 15 0 30 -4 33 -10
11 -18 35 -10 41 14 5 21 9 23 28 15 16 -7 22 -20 23 -42 1 -37 10 -88 16 -94
15 -14 77 -13 101 2 30 20 31 21 11 89 -15 50 -17 52 -44 48 -22 -3 -32 1 -40
17 -9 17 -8 22 9 31 12 6 20 7 20 1 0 -5 -8 -12 -17 -14 -10 -2 -4 -4 13 -3
21 1 31 6 30 16 -1 21 38 25 54 5 8 -10 9 -15 1 -15 -6 0 -11 5 -11 10 0 6 -7
10 -16 10 -10 0 -14 -7 -12 -17 2 -10 9 -17 16 -16 7 2 10 -7 6 -25 -8 -43 9
-87 35 -90 22 -3 22 -4 5 -23 -9 -10 -14 -22 -11 -26 4 -3 7 -1 7 6 0 8 7 10
21 6 17 -6 20 -4 16 12 -3 10 -8 32 -12 49 -5 26 -10 31 -27 26 -17 -4 -20 -2
-15 12 4 10 7 20 7 22 0 3 5 2 11 -1 7 -5 8 6 4 32 -5 38 -5 39 47 65 29 15
96 55 148 90 129 86 137 102 123 253 -10 105 -12 114 -46 158 -30 39 -50 82
-82 175 -2 6 -11 12 -18 12 -28 0 -54 49 -60 112 -1 9 -4 15 -7 13 -4 -2 -21
26 -39 63 -19 38 -26 60 -17 53 14 -12 16 -10 17 15 2 28 4 48 8 69 5 30 28
-45 29 -98 2 -51 6 -65 24 -79 29 -22 38 -22 38 -1 0 9 -3 13 -7 10 -11 -12
-43 25 -43 50 0 27 15 30 30 6 7 -13 10 21 8 127 l-3 145 43 70 c23 39 54 94
68 123 15 28 33 52 41 52 8 0 12 4 9 9 -8 12 67 102 96 117 44 23 226 55 300
53 40 -1 88 1 106 5 26 6 32 4 32 -8 0 -9 4 -16 8 -16 5 0 26 -35 47 -77 36
-72 75 -123 94 -123 18 0 161 -148 161 -166 0 -10 7 -31 14 -46 12 -23 13 -52
5 -165 -17 -243 -18 -271 -11 -228 5 28 13 41 26 43 18 4 19 3 3 -13 -9 -9
-17 -31 -17 -50 0 -20 -6 -35 -15 -39 -8 -3 -15 -14 -15 -24 0 -48 -45 -148
-88 -194 -46 -50 -61 -90 -62 -174 0 -73 49 -150 108 -168 12 -4 19 -12 16
-18 -4 -6 -2 -8 3 -5 6 4 45 -13 87 -37 42 -24 91 -50 107 -57 27 -11 30 -16
25 -43 -5 -31 -5 -31 14 6 l20 37 41 -14 c23 -8 45 -12 50 -10 4 3 30 -5 56
-18 40 -20 101 -41 111 -38 11 4 -3 15 -16 13 -13 -3 -14 -1 -3 12 19 22 44 1
38 -31 -5 -25 5 -30 20 -10 13 16 13 46 -1 44 -6 -1 -10 21 -10 55 -1 31 2 54
7 51 12 -7 8 30 -13 108 -11 41 -24 92 -30 115 -5 22 -27 79 -49 127 -39 83
-68 151 -97 231 -8 21 -17 61 -19 90 -2 28 -7 74 -10 101 -6 57 -11 120 -24
285 -5 63 -16 135 -25 160 -9 25 -16 53 -16 63 0 23 -70 240 -81 252 -5 5 -9
19 -9 32 0 13 -4 23 -10 23 -5 0 -10 7 -10 16 0 8 -4 13 -9 10 -4 -3 -6 6 -3
19 2 14 0 25 -6 25 -7 0 -8 10 -2 29 4 17 5 31 0 33 -4 2 3 23 16 48 20 36 24
40 21 18 -2 -16 0 -25 6 -21 19 12 -1 110 -36 174 -57 108 -198 202 -333 224
-66 10 -290 13 -305 4z"/>
<path d="M5371 9723 c-38 -16 -89 -53 -75 -53 5 0 1 -6 -8 -13 -15 -12 -13
-16 16 -39 44 -35 92 -43 172 -27 50 10 68 18 74 33 11 30 1 53 -37 86 -38 34
-85 39 -142 13z"/>
<path d="M5840 9697 c-79 -42 -96 -71 -52 -89 34 -14 181 -15 190 -2 4 6 22
19 40 30 l32 19 -52 27 c-58 30 -118 36 -158 15z"/>
<path d="M5618 9233 c17 -2 32 -8 32 -14 0 -11 -53 -12 -64 -1 -4 4 -39 7 -77
8 l-69 0 37 -23 c75 -45 106 -55 182 -56 72 -1 80 1 144 38 37 21 67 42 67 45
0 3 -64 6 -142 7 -79 0 -128 -1 -110 -4z"/>
<path d="M6591 8461 c-10 -7 -10 -10 -1 -13 8 -2 10 -12 6 -25 -5 -15 -18 -23
-46 -28 -26 -4 -37 -11 -34 -20 3 -7 -3 -16 -15 -20 -12 -3 -21 -12 -21 -19 0
-14 -41 -56 -55 -56 -5 0 -18 9 -29 19 -22 20 -42 24 -113 22 -24 -1 -43 -6
-43 -12 0 -7 14 -10 35 -7 41 5 42 -1 15 -61 -12 -25 -22 -57 -24 -72 -1 -15
-8 -34 -14 -42 -21 -25 -41 -106 -29 -114 6 -3 16 2 21 12 24 41 80 96 105
101 14 4 37 13 50 21 17 11 29 12 45 5 11 -6 29 -13 38 -16 12 -3 16 -12 12
-23 -5 -17 -5 -17 9 0 8 10 21 15 31 11 9 -3 16 -1 16 5 0 6 5 11 10 11 6 0
10 -7 10 -15 0 -9 11 -20 24 -24 13 -5 26 -19 29 -30 3 -14 10 -18 26 -14 24
6 26 0 9 -30 -7 -12 -13 -46 -14 -75 l-2 -52 29 42 c16 24 50 70 74 103 45 60
105 155 105 166 0 16 -26 3 -27 -14 -1 -11 -7 -25 -14 -31 -9 -8 -10 -8 -5 1
3 6 8 24 10 40 3 15 8 39 11 53 5 18 -2 12 -24 -20 -32 -47 -39 -66 -19 -54 7
4 8 3 4 -5 -4 -6 -12 -9 -17 -6 -5 3 -18 -9 -29 -27 -12 -20 -20 -26 -20 -17
0 9 -7 20 -15 23 -11 4 -15 0 -13 -11 2 -9 -2 -18 -8 -20 -17 -6 -22 52 -7 73
10 14 10 19 0 26 -9 6 -9 8 2 8 8 0 25 -10 38 -22 20 -19 26 -20 33 -8 5 8 5
21 -1 31 -13 25 -11 35 3 21 19 -19 29 -14 16 8 -12 18 -14 18 -36 4 -13 -9
-26 -13 -29 -10 -8 8 8 27 31 36 18 7 16 8 -12 8 -22 -1 -31 -5 -28 -13 5 -15
-41 -62 -51 -52 -3 4 2 14 13 21 10 8 20 19 20 25 1 6 2 16 3 21 0 6 10 10 21
10 11 0 20 4 20 10 0 6 -9 6 -26 0 -39 -15 -42 -13 -37 33 6 72 3 98 -12 109
-13 10 -37 10 -54 -1z"/>
<path d="M4603 8123 c-7 -2 -13 -9 -13 -14 0 -6 5 -7 10 -4 15 9 12 -18 -4
-41 -14 -20 -11 -74 5 -74 13 0 48 -37 42 -44 -3 -3 -14 -1 -24 5 -17 8 -19 6
-19 -20 0 -17 6 -31 16 -35 12 -4 15 -2 10 9 -3 8 0 15 7 15 7 -1 21 -21 33
-45 23 -48 22 -54 -4 -29 -15 15 -17 15 -26 -5 -5 -11 -13 -21 -18 -21 -11 0
1 -49 19 -77 8 -12 12 -26 9 -32 -3 -5 0 -22 8 -38 8 -15 20 -40 27 -55 9 -21
15 -25 25 -17 9 7 14 4 19 -11 8 -25 -2 -40 -14 -21 -5 8 -11 9 -15 3 -3 -5 6
-17 20 -27 24 -16 25 -17 7 -30 -14 -11 -15 -14 -3 -15 8 0 29 20 45 45 19 29
42 49 63 56 30 10 31 12 16 23 -16 12 -14 15 14 36 37 28 40 52 11 81 -12 12
-17 24 -12 28 12 7 13 41 2 41 -4 0 -11 -5 -14 -10 -5 -8 -11 -7 -20 0 -19 16
-55 -5 -55 -31 0 -15 -5 -18 -24 -15 -16 3 -27 -1 -30 -11 -9 -21 4 -66 22
-81 12 -9 13 -15 5 -23 -17 -17 -31 -3 -39 36 -3 19 -10 35 -14 35 -13 0 26
92 44 105 22 17 20 35 -4 35 -11 0 -20 5 -20 10 0 6 9 10 19 10 14 0 18 5 14
20 -3 11 -9 23 -14 26 -8 5 -12 -1 -25 -45 -4 -11 -8 -11 -16 -3 -8 8 -8 15 2
27 11 14 11 18 1 25 -9 5 -10 10 -2 14 6 4 11 2 11 -4 0 -6 5 -8 10 -5 6 3 10
14 9 23 0 9 -3 12 -5 6 -6 -13 -44 -7 -44 7 0 5 5 9 10 9 6 0 13 0 18 0 4 0
12 15 19 33 14 40 16 58 2 35 -5 -10 -17 -18 -25 -18 -8 0 -20 -12 -26 -27
-10 -24 -12 -25 -16 -9 -2 11 3 23 12 28 25 14 20 31 -6 17 -19 -10 -20 -9
-13 7 16 39 17 64 2 79 -16 16 -23 17 -44 8z"/>
<path d="M6529 8094 c-7 -8 -21 -13 -32 -10 -14 3 -21 -3 -29 -25 -5 -16 -15
-29 -22 -29 -28 0 -49 -28 -51 -66 -3 -54 -2 -52 -27 -57 -21 -3 -21 -4 -5
-12 10 -4 28 -3 40 3 39 18 66 13 73 -14 3 -13 13 -24 21 -24 10 0 12 6 8 21
-4 13 0 34 11 54 16 31 17 35 1 59 -16 24 -16 27 8 62 32 47 35 75 4 38z"/>
<path d="M5158 8002 c-10 -2 -18 -12 -18 -22 0 -17 6 -18 50 -13 47 5 50 5 61
-23 18 -46 24 -56 30 -52 4 2 15 -4 25 -13 28 -24 49 -34 40 -21 -4 7 -3 12 1
12 13 0 43 -56 35 -65 -4 -5 -1 -5 6 -1 18 10 15 43 -5 55 -10 6 -13 11 -6 11
12 0 20 -7 49 -45 15 -19 15 -18 10 12 -3 18 -1 35 5 39 7 4 6 11 -2 20 -14
18 3 19 33 3 12 -7 23 -7 27 -2 3 5 15 13 26 18 19 8 19 9 -2 12 -13 3 -23 9
-23 14 0 6 -5 7 -11 3 -13 -7 -54 11 -86 40 -36 30 -38 12 -3 -27 l30 -35 -34
0 c-24 0 -41 7 -55 24 -15 17 -17 24 -7 24 7 0 19 -7 26 -15 7 -8 18 -15 24
-15 8 0 8 2 -1 8 -6 4 -14 19 -18 33 -5 20 -13 27 -31 27 -13 0 -24 -4 -24 -9
0 -5 5 -9 11 -9 5 0 7 -5 4 -10 -4 -6 -12 -7 -18 -3 -18 10 12 -28 42 -55 l26
-23 -30 7 c-39 9 -45 13 -45 29 0 7 -10 15 -22 17 -13 2 -21 8 -18 13 3 6 9 9
14 7 5 -2 6 4 2 13 -3 9 -6 19 -6 21 0 2 -4 4 -10 4 -5 0 -7 -8 -4 -17 5 -17
5 -17 -9 0 -14 16 -41 19 -89 9z"/>
<path d="M6077 7982 c-13 -3 -15 -10 -11 -28 4 -15 2 -24 -5 -24 -6 0 -16 -11
-21 -25 -11 -29 -25 -32 -38 -9 -5 9 -14 14 -21 10 -11 -7 3 -25 41 -55 15
-11 20 -11 33 2 8 9 10 17 5 19 -17 6 1 48 21 48 22 0 34 -37 26 -83 -3 -18
-3 -26 0 -19 2 6 9 12 15 12 6 0 16 8 23 17 12 16 16 16 69 0 31 -10 56 -22
56 -27 0 -10 -66 -2 -92 12 -13 6 -18 5 -18 -7 0 -8 -4 -15 -10 -15 -5 0 -10
-11 -10 -25 0 -18 -5 -25 -20 -25 -11 0 -20 4 -20 9 0 18 -32 41 -56 41 -13 0
-24 3 -24 8 -1 20 -33 45 -60 47 -27 2 -30 -1 -30 -29 0 -41 10 -76 21 -76 5
0 9 11 9 25 0 31 3 31 35 3 15 -13 45 -30 68 -38 35 -13 42 -20 44 -44 1 -16
-3 -39 -10 -50 -6 -12 -11 -24 -12 -28 0 -5 -3 -8 -7 -8 -32 0 -33 1 -19 9 11
7 10 10 -6 15 -11 4 -27 4 -35 1 -11 -4 -20 4 -29 25 -16 35 -39 36 -54 2 -5
-12 -14 -21 -20 -19 -5 2 -18 -5 -29 -14 -10 -10 -23 -16 -27 -13 -4 2 -10 0
-14 -6 -3 -5 -1 -10 6 -10 7 0 9 -10 6 -30 -7 -32 1 -38 22 -17 11 10 12 8 6
-10 -6 -21 -3 -23 30 -23 32 0 35 2 29 24 -5 20 -1 24 22 29 35 6 74 -8 74
-28 0 -20 -17 -19 -29 3 -8 13 -10 14 -11 2 0 -26 14 -35 55 -35 49 -1 72 17
48 37 -13 10 -17 10 -20 1 -6 -17 -30 -16 -36 1 -8 20 19 40 44 33 17 -5 20
-2 16 14 -3 12 2 23 14 29 12 7 16 17 12 28 -5 14 -3 15 8 5 7 -7 22 -13 34
-12 11 0 14 3 7 6 -19 8 -4 22 18 16 14 -4 20 -14 20 -33 0 -16 6 -35 13 -42
7 -7 13 -33 12 -56 -1 -36 1 -41 11 -28 6 9 22 16 35 16 13 0 30 4 38 9 12 8
12 13 -3 36 -16 24 -16 28 -1 51 8 13 20 24 26 24 6 0 7 5 4 10 -8 13 23 45
33 35 4 -4 1 -10 -5 -12 -19 -7 -16 -27 7 -41 21 -13 27 -51 10 -68 -14 -14
37 -67 57 -60 9 4 21 1 29 -4 18 -16 36 21 34 68 -3 67 -1 77 12 64 16 -16 28
-15 28 3 0 8 -7 15 -16 15 -13 0 -15 6 -9 28 11 43 9 83 -6 92 -10 7 -6 12 14
19 38 15 54 14 35 -1 -20 -17 -29 -43 -17 -55 16 -16 19 -123 3 -123 -17 0
-28 -55 -14 -79 16 -31 19 -26 15 24 -3 47 9 60 21 23 l6 -21 19 24 c10 13 19
34 19 47 0 12 7 39 15 59 14 33 17 35 33 21 9 -8 24 -18 32 -22 9 -5 8 -2 -2
7 -10 8 -18 20 -18 28 0 11 2 11 11 -1 8 -12 10 -9 6 12 -2 15 -1 29 3 30 5 2
1 20 -7 41 l-15 37 -36 -22 -35 -22 6 23 c5 21 4 22 -12 7 -10 -9 -25 -16 -35
-16 -9 0 -30 -7 -47 -15 -27 -14 -28 -17 -14 -31 26 -26 0 -47 -27 -21 -15 14
-113 36 -126 28 -5 -3 -11 -14 -15 -23 -8 -22 -40 -23 -57 -3 -17 21 2 44 22
27 9 -7 18 -7 31 3 16 12 16 14 -13 39 -17 14 -28 30 -25 36 3 5 -2 10 -12 10
-25 0 -73 46 -73 70 0 18 -10 24 -32 21 -4 0 -26 3 -50 7 -24 4 -51 6 -61 4z"/>
<path d="M5624 7700 c5 -35 4 -41 -11 -38 -9 2 -22 -6 -28 -18 -15 -30 -37
-55 -43 -50 -2 3 5 18 17 34 26 37 27 55 2 24 -13 -15 -21 -18 -24 -10 -3 7
-6 3 -6 -10 -1 -13 -12 -33 -26 -46 -19 -18 -22 -25 -12 -36 10 -10 4 -11 -33
-6 -25 4 -52 7 -60 7 -21 1 -48 50 -44 82 1 15 -2 27 -7 27 -5 0 -7 11 -3 25
8 33 -4 32 -18 -2 l-12 -28 -4 38 c-4 41 -20 45 -33 9 -6 -16 -5 -22 6 -22 26
0 16 -20 -10 -21 -42 -2 -45 -4 -55 -19 -8 -13 -12 -12 -25 5 -16 19 -16 19
-11 1 4 -12 -1 -26 -13 -37 -10 -10 -21 -24 -24 -31 -4 -10 -9 -9 -20 5 -22
26 -43 21 -66 -18 l-20 -35 23 6 c16 4 25 1 29 -10 6 -15 -5 -20 -40 -19 -17
1 -16 -16 2 -47 21 -37 18 -41 -19 -23 -35 16 -56 53 -31 53 15 0 24 19 18 38
-6 16 -33 15 -57 -3 -18 -13 -15 -19 6 -16 4 0 4 -7 1 -16 -4 -11 -8 -13 -11
-5 -2 7 -7 12 -11 12 -5 0 -3 -15 3 -34 6 -21 15 -32 23 -29 7 3 13 0 13 -6 0
-21 -28 -23 -49 -4 -21 18 -30 39 -11 28 6 -3 10 -1 10 5 0 5 -12 10 -27 9
-16 0 -37 2 -49 6 -14 4 -27 0 -38 -11 -14 -13 -20 -14 -26 -5 -5 10 -9 8 -14
-4 -8 -23 -9 -21 21 -50 27 -24 27 -25 5 -25 -12 0 -22 -5 -22 -11 0 -8 -5 -8
-15 1 -13 10 -15 9 -15 -8 0 -12 4 -24 10 -27 5 -3 7 0 4 8 -4 12 7 14 58 11
55 -3 60 -2 36 8 -16 7 -28 20 -28 30 0 25 43 33 72 14 14 -9 27 -13 31 -10 3
3 11 3 17 -1 8 -5 8 -10 0 -20 -9 -10 -7 -16 9 -24 33 -18 46 -13 26 9 -11 12
-13 20 -6 20 21 0 68 -29 75 -45 8 -23 8 -25 -9 -25 -8 0 -19 -9 -25 -20 -8
-15 -6 -24 10 -40 11 -11 20 -26 20 -34 0 -8 6 -16 14 -19 8 -3 13 1 12 10 -2
24 18 25 32 2 8 -12 9 -18 4 -15 -6 3 -13 -7 -17 -24 -8 -37 -24 -48 -40 -27
-15 21 -35 22 -35 2 0 -14 38 -41 53 -37 4 1 14 -4 21 -11 11 -11 10 -17 -5
-36 -19 -24 -39 -21 -39 6 0 11 -6 14 -25 9 -27 -7 -32 3 -13 22 9 9 7 12 -11
12 -17 0 -22 -5 -19 -22 2 -13 5 -25 8 -28 17 -17 29 -50 19 -55 -7 -5 -6 -11
2 -21 9 -11 7 -14 -11 -14 -14 0 -20 -5 -18 -16 2 -8 6 -14 9 -12 4 2 16 -5
26 -15 21 -19 39 -12 22 9 -6 7 -8 22 -4 34 7 21 20 26 29 11 10 -15 46 0 46
20 0 10 4 20 9 23 4 3 6 17 4 31 -4 17 0 27 11 31 21 8 28 2 30 -30 0 -14 6
-26 12 -26 19 0 24 27 8 40 -17 15 -18 36 -2 46 8 5 9 2 5 -10 -4 -10 -3 -15
4 -11 5 4 7 16 3 27 -5 17 -3 20 11 15 9 -4 20 -7 25 -7 4 0 7 -11 6 -25 -1
-17 -6 -23 -15 -20 -10 4 -12 -1 -7 -17 3 -13 6 -26 6 -30 0 -20 20 -5 20 15
1 21 1 22 15 3 19 -25 19 -37 1 -30 -19 7 -31 -15 -16 -29 10 -9 11 -9 6 1 -4
6 -5 12 -2 12 3 0 12 -12 20 -27 14 -26 15 -27 16 -5 0 12 4 22 10 22 5 0 7
-7 4 -15 -4 -8 -1 -15 5 -15 19 0 12 31 -14 62 -26 30 -33 58 -15 58 6 0 10
-8 10 -17 1 -45 48 -73 102 -61 30 7 32 18 4 18 -15 0 -25 4 -21 10 3 5 0 8
-7 5 -7 -3 -31 11 -52 30 -21 19 -43 32 -47 29 -5 -3 -9 4 -9 15 0 14 6 21 19
21 11 0 26 3 35 6 29 11 16 24 -24 24 -27 0 -40 4 -40 14 0 21 58 29 77 10 14
-13 17 -13 29 5 19 27 58 17 43 -11 -8 -15 -7 -23 8 -34 24 -18 30 -17 37 2 4
10 -1 25 -10 35 -16 18 -16 19 9 19 27 0 37 15 15 22 -16 6 -20 123 -5 165 8
23 19 34 39 38 27 6 40 25 17 25 -6 0 -9 6 -6 13 3 7 -4 19 -15 26 -25 16 -34
8 -13 -12 8 -9 15 -19 15 -23 0 -10 -59 49 -60 60 0 5 7 3 15 -4 10 -9 15 -9
15 -1 0 16 25 14 40 -4 9 -10 30 -15 69 -14 31 0 50 3 44 6 -20 7 -15 20 10
27 21 6 20 7 -12 21 -30 13 -37 13 -64 0 -35 -17 -40 -18 -33 -6 4 5 1 11 -6
13 -9 3 -9 6 0 12 7 4 12 2 12 -5 0 -8 7 -6 19 5 11 10 36 22 56 26 30 7 45 4
83 -16 55 -29 82 -33 61 -7 -8 9 -27 22 -44 29 l-30 13 29 1 c41 0 28 11 -24
19 -2 1 5 8 17 16 12 9 20 22 17 30 -3 8 6 20 23 30 26 15 27 16 3 10 -14 -4
-33 -7 -42 -6 -12 0 -18 -8 -18 -24 0 -22 -39 -81 -40 -59 0 5 5 15 11 21 14
14 3 83 -13 83 -7 0 -8 -14 -4 -40z"/>
<path d="M6510 7413 c-6 -27 -18 -55 -27 -65 -13 -14 -18 -15 -48 -2 -26 11
-35 11 -38 1 -4 -9 -8 -8 -17 3 -8 12 -9 8 -4 -15 4 -16 17 -41 29 -55 30 -34
41 -80 19 -80 -13 0 -15 -7 -9 -42 9 -53 22 -88 33 -88 16 0 10 -39 -9 -55
-18 -17 -19 -17 -28 6 -5 13 -10 18 -10 11 -1 -7 4 -23 10 -35 8 -14 9 -22 1
-25 -12 -4 4 -40 31 -66 16 -17 17 -16 17 6 0 13 7 36 15 52 8 15 15 34 15 41
0 7 4 15 8 17 5 2 12 22 16 46 4 29 3 41 -4 37 -5 -3 -10 -17 -10 -30 0 -30
-10 -55 -21 -55 -5 0 -9 11 -9 23 0 13 -9 34 -20 47 -24 28 -24 31 -4 56 15
18 15 18 10 -6 -3 -16 2 -37 13 -54 l19 -28 0 48 c0 50 -15 97 -28 89 -4 -3
-10 4 -13 15 -4 17 -2 18 15 9 28 -15 51 -4 43 21 -4 14 -2 20 9 20 10 0 13
-6 10 -15 -4 -8 -1 -15 5 -15 23 0 23 31 0 64 -13 19 -27 32 -31 30 -4 -3 -8
2 -8 11 0 9 4 14 9 11 5 -4 11 -1 13 6 3 7 14 13 26 13 29 0 33 19 5 23 -19 3
-21 8 -16 38 8 50 -3 41 -17 -13z"/>
<path d="M5627 7367 c-14 -14 -30 -18 -67 -15 -52 3 -58 -6 -10 -17 16 -4 39
-19 51 -33 12 -16 18 -20 15 -9 -9 29 9 19 53 -28 40 -44 45 -46 92 -44 55 3
67 12 48 35 -10 13 -14 13 -29 -1 -22 -20 -27 -19 -33 5 -5 18 -17 26 -72 46
-19 6 -18 7 5 13 l25 7 -25 8 c-24 7 -24 7 -5 15 12 5 27 16 34 25 13 15 10
16 -25 14 -21 -2 -47 -11 -57 -21z"/>
<path d="M4948 7233 c-7 -10 -23 -24 -36 -31 -19 -11 -22 -10 -22 7 0 21 -13
35 -23 25 -3 -4 -1 -14 5 -24 8 -12 8 -29 0 -60 -11 -44 -3 -80 18 -80 13 0
13 -37 0 -45 -13 -8 -13 -45 1 -45 5 0 7 -5 4 -11 -4 -6 -13 -8 -20 -5 -7 2
-17 0 -23 -6 -18 -18 -31 1 -25 37 3 19 1 35 -4 35 -5 0 -26 -18 -46 -39 -25
-27 -34 -42 -26 -47 7 -4 17 0 24 9 16 22 23 13 17 -18 -5 -27 -17 -33 -25
-12 -9 25 -16 0 -10 -36 4 -30 8 -35 19 -26 19 16 17 -2 -3 -31 -16 -23 -16
-23 3 -15 10 4 39 13 62 19 44 11 44 11 38 48 -5 30 -3 38 9 38 9 0 12 -6 8
-17 -4 -10 -2 -14 4 -10 6 4 13 1 16 -5 2 -7 7 -10 11 -7 4 4 -5 20 -19 37
l-26 31 26 7 c19 5 23 9 14 15 -17 10 -3 24 24 24 11 0 22 5 24 12 3 7 -4 10
-19 6 -18 -4 -20 -3 -8 6 13 9 13 11 -2 11 -10 0 -19 6 -19 13 -1 6 -3 23 -4
36 -1 13 -10 28 -19 33 -9 5 -16 17 -16 27 0 20 43 65 53 54 4 -3 7 -1 7 6 0
8 5 9 18 2 12 -6 23 -6 33 0 11 8 10 9 -6 7 -15 -2 -19 2 -18 20 3 27 -2 28
-19 5z"/>
<path d="M6097 7231 c-17 -6 -17 -8 -3 -20 13 -11 16 -11 16 0 1 9 5 8 15 -5
34 -45 9 -48 -40 -5 -20 17 -33 24 -29 15 3 -9 2 -16 -4 -16 -5 0 -12 7 -16
15 -5 14 -36 22 -36 9 0 -3 13 -24 29 -47 16 -23 32 -54 35 -70 6 -25 4 -27
-16 -22 -13 3 -36 7 -51 9 -16 2 -37 10 -48 19 -27 24 -29 22 -25 -26 2 -30
-2 -50 -15 -65 -22 -28 -29 -28 -26 0 1 17 -5 24 -30 31 -21 6 -33 16 -33 27
0 10 -8 24 -17 31 -16 12 -17 12 -6 -1 15 -20 21 -65 8 -63 -6 1 -11 -7 -11
-18 0 -10 7 -19 14 -19 8 0 12 6 9 14 -8 20 19 28 34 10 13 -16 13 -16 -16
-33 -15 -9 -16 -11 -2 -7 21 7 22 -7 1 -25 -14 -12 -14 -14 6 -21 12 -4 32 -5
44 -2 31 7 50 -17 41 -56 -4 -16 -9 -30 -11 -30 -3 0 -21 12 -40 26 -23 18
-41 24 -56 20 -59 -15 -61 -41 -4 -51 28 -6 32 -10 28 -31 -3 -16 1 -26 12
-30 25 -9 19 -24 -9 -24 -26 0 -75 39 -75 60 0 5 -4 10 -10 10 -5 0 -7 -7 -3
-16 8 -22 -9 -31 -57 -28 -22 1 -38 -2 -35 -6 7 -11 -22 -33 -35 -25 -5 3 -16
3 -22 -1 -9 -6 -5 -10 11 -14 16 -4 29 -17 37 -40 7 -19 13 -30 13 -23 1 7 8
10 16 7 8 -4 23 -3 33 1 9 5 28 7 42 6 18 -1 21 1 11 7 -11 8 -10 12 8 21 11
7 21 8 21 4 0 -4 5 -1 10 7 8 12 10 12 10 -5 1 -18 2 -17 11 4 7 17 15 22 29
18 12 -3 20 0 20 8 0 7 8 15 18 18 9 4 27 14 39 23 21 15 23 15 41 -16 13 -21
22 -27 25 -18 4 9 6 7 6 -4 1 -12 9 -18 25 -18 13 0 36 -3 52 -6 23 -4 32 0
43 17 10 17 11 24 2 27 -26 9 9 28 44 24 27 -3 37 -10 41 -28 6 -22 10 -24 43
-18 46 8 52 14 53 55 1 19 8 39 16 45 7 5 15 26 16 46 1 31 -2 37 -22 41 -12
2 -25 0 -28 -5 -9 -14 -25 2 -20 20 6 20 -50 86 -64 77 -16 -10 -11 -21 13
-32 19 -9 23 -17 19 -42 -3 -22 1 -38 14 -52 18 -20 18 -20 -29 -15 -38 5 -45
3 -41 -9 7 -18 -7 -20 -23 -4 -12 12 -6 42 7 34 4 -2 20 10 35 27 l28 32 -35
30 c-56 49 -61 66 -32 97 16 17 22 29 15 33 -6 4 -11 2 -11 -3 0 -6 -4 -11
-10 -11 -5 0 -8 16 -6 35 3 42 -28 77 -57 66z"/>
<path d="M5045 6830 c4 -12 1 -27 -5 -35 -7 -8 -10 -20 -7 -27 3 -8 6 -5 6 6
1 19 1 19 15 1 10 -14 11 -26 3 -52 -6 -18 -14 -33 -19 -33 -14 0 -9 33 9 53
15 15 15 19 3 17 -30 -5 -42 0 -37 15 4 8 2 17 -3 20 -10 6 -60 -38 -60 -54 0
-17 -18 -13 -29 6 -7 14 -12 15 -23 5 -8 -6 -18 -9 -21 -5 -4 3 -7 -1 -7 -11
0 -9 12 -22 28 -28 22 -9 24 -12 9 -15 -10 -3 -27 3 -38 13 -10 9 -19 12 -19
6 0 -6 5 -14 10 -17 7 -4 7 -13 0 -26 -11 -19 -30 -18 -30 2 0 6 5 7 10 4 6
-3 10 -1 10 4 0 16 -16 13 -34 -5 -12 -12 -16 -12 -16 -2 0 10 -3 9 -10 -2
-13 -20 -13 -53 0 -45 17 10 47 -4 53 -25 3 -11 10 -20 17 -20 6 0 8 5 5 10
-10 17 21 11 42 -7 19 -18 19 -19 1 -37 -20 -22 -23 -36 -8 -36 6 0 10 -7 10
-15 0 -8 4 -15 10 -15 6 0 6 9 0 26 -6 14 -7 30 -4 36 4 6 12 -4 18 -23 8 -23
8 -37 1 -42 -7 -6 -6 -10 3 -14 6 -2 12 -9 12 -14 0 -6 -4 -7 -10 -4 -5 3 -10
2 -10 -4 0 -15 41 -41 64 -41 19 0 19 1 4 16 -14 15 -14 18 -1 34 13 15 27 17
97 13 44 -3 84 -11 88 -17 5 -8 8 -7 8 2 0 7 4 11 9 8 15 -10 32 52 18 66 -7
7 -12 26 -11 43 1 17 -6 35 -15 42 -14 11 -11 13 19 14 76 3 75 2 75 34 0 23
-4 29 -17 27 -20 -3 -25 23 -7 33 7 5 5 13 -6 25 -16 18 -16 21 5 49 12 17 26
31 32 31 6 0 8 3 5 7 -4 4 -22 -8 -41 -26 -27 -27 -37 -30 -57 -23 -13 6 -36
24 -50 40 -38 46 -86 24 -56 -25 9 -14 -9 -27 -24 -17 -6 3 -8 15 -6 26 7 24
-1 48 -15 48 -5 0 -6 -9 -3 -20z"/>
<path d="M6453 6749 c-7 -16 -8 -31 -2 -40 5 -8 8 -25 8 -39 0 -22 -2 -21 -14
10 -7 19 -14 31 -15 25 0 -5 -9 0 -20 13 -12 15 -21 19 -26 11 -3 -6 0 -15 7
-20 10 -6 3 -9 -20 -9 l-34 0 22 -23 c13 -15 19 -30 15 -40 -7 -19 -30 -23
-36 -7 -2 7 -16 8 -43 1 -22 -5 -33 -9 -24 -10 20 -1 52 -47 44 -61 -3 -6 -1
-10 4 -10 6 0 11 7 11 15 0 8 5 15 10 15 6 0 10 -6 10 -14 0 -8 7 -17 15 -20
9 -3 22 -20 29 -37 12 -28 14 -29 19 -10 3 11 1 24 -4 27 -5 3 -9 10 -9 16 0
6 9 1 20 -12 11 -13 20 -27 20 -32 0 -19 20 4 21 25 1 18 2 19 6 4 3 -12 12
-17 26 -15 12 2 21 8 19 13 -2 6 -9 9 -15 8 -8 -2 -13 17 -16 55 -1 31 -6 86
-9 122 -6 59 -8 62 -19 39z"/>
<path d="M5550 6420 c0 -5 7 -7 15 -4 8 4 15 1 15 -5 0 -16 -31 -26 -39 -13
-6 11 -70 -39 -72 -56 0 -4 -2 -15 -4 -24 -2 -9 2 -15 8 -12 21 8 18 -57 -4
-87 -11 -16 -18 -29 -15 -29 3 0 -6 -12 -19 -26 -14 -15 -25 -31 -25 -35 0
-15 -19 -10 -39 10 -17 17 -22 18 -45 6 -23 -12 -26 -12 -26 3 -1 16 -1 15
-11 -1 -5 -9 -8 -21 -4 -26 3 -5 1 -11 -4 -13 -26 -9 -8 -90 17 -82 10 3 5 -4
-11 -16 -15 -12 -25 -26 -22 -30 3 -5 1 -11 -5 -15 -5 -3 -10 -13 -10 -22 0
-12 3 -13 13 -4 8 6 17 8 21 4 4 -4 4 0 1 8 -6 16 2 21 80 49 23 9 26 13 15
20 -8 5 -25 7 -37 3 -14 -3 -23 -1 -23 6 0 6 10 11 23 11 18 0 19 2 7 10 -13
8 -11 11 8 16 12 4 22 10 22 15 0 5 5 9 11 9 7 0 5 -10 -5 -25 -15 -23 -15
-25 5 -36 17 -8 23 -8 29 1 4 7 13 9 20 5 10 -6 8 -12 -6 -23 -18 -13 -17 -14
9 -8 36 8 34 -5 -5 -38 -42 -34 -23 -33 47 4 71 38 155 42 178 10 8 -11 16
-17 20 -14 3 3 16 -4 29 -15 15 -15 30 -20 45 -16 20 5 23 2 23 -25 0 -16 4
-30 9 -30 5 0 7 8 4 18 -2 11 9 32 31 55 32 34 37 36 60 25 26 -11 37 -50 14
-44 -7 1 -10 1 -5 -1 4 -3 7 -11 7 -19 0 -10 -10 -13 -32 -12 -27 3 -35 -2
-47 -26 -11 -23 -11 -36 -3 -59 17 -44 7 -55 -43 -49 -28 3 -50 0 -60 -8 -22
-18 -18 -57 7 -74 16 -12 18 -16 7 -16 -20 0 -49 -31 -49 -52 0 -8 9 -27 21
-42 16 -21 24 -24 39 -16 16 8 22 6 36 -15 9 -14 20 -22 25 -19 19 11 59 -49
59 -89 0 -25 -23 -42 -41 -31 -5 3 -9 1 -9 -5 0 -5 13 -9 30 -9 16 1 27 5 24
10 -3 4 -1 8 5 8 5 0 12 -4 15 -9 3 -5 14 -7 25 -4 12 3 20 -2 24 -16 6 -24
-3 -27 -22 -8 -11 10 -13 9 -8 -5 3 -10 2 -20 -3 -23 -6 -4 -10 0 -11 7 -1 7
-4 2 -8 -12 -4 -14 -6 -27 -5 -29 6 -7 64 21 64 31 0 6 7 8 15 5 12 -5 12 -2
3 19 -9 20 -8 28 5 41 15 15 15 17 -1 29 -9 7 -13 16 -9 20 4 5 12 2 17 -6 7
-12 12 -12 22 -2 21 21 27 14 21 -24 -4 -25 -2 -39 8 -46 10 -7 8 -8 -8 -3
-19 5 -23 2 -23 -18 0 -31 26 -55 42 -39 16 16 28 15 28 -2 0 -16 27 -29 41
-20 5 3 9 1 9 -5 0 -14 -55 -24 -90 -16 -20 4 -30 3 -30 -5 0 -8 18 -11 55 -8
30 1 55 0 55 -4 0 -14 -40 -28 -64 -22 -34 8 -52 -4 -30 -20 22 -17 2 -31 -24
-17 -14 8 -19 6 -19 -5 0 -12 23 -19 50 -15 21 3 2 -22 -32 -43 -22 -14 -42
-29 -45 -35 -9 -14 35 0 66 21 34 24 36 23 31 -9 l-4 -28 19 22 c11 12 22 19
26 16 6 -6 10 35 7 69 -2 12 3 16 13 12 8 -3 12 -12 9 -20 -3 -7 2 -17 11 -20
9 -3 16 -12 16 -19 0 -17 39 -65 52 -65 7 0 1 11 -12 25 -15 16 -19 25 -10 25
8 0 3 11 -13 28 -15 15 -27 39 -27 53 0 17 -3 20 -9 10 -6 -10 -10 -10 -16 -1
-4 6 6 28 24 50 17 21 31 44 31 51 0 12 49 9 85 -6 17 -8 18 -7 7 7 -15 19 -2
31 24 21 12 -4 15 -3 10 5 -4 7 -2 12 4 12 6 0 8 -10 4 -25 -5 -20 -3 -24 10
-19 13 5 15 0 12 -27 -5 -39 2 -61 16 -53 5 3 16 -2 24 -12 14 -18 15 -17 9
11 -6 29 -6 29 14 11 22 -20 43 -14 24 5 -6 6 -9 19 -5 28 5 14 4 14 -11 2
-21 -17 -21 -12 -2 25 24 46 16 71 -13 42 -7 -7 -12 -8 -12 -2 0 6 5 15 12 22
8 8 8 15 -2 27 -10 12 -10 15 3 15 8 0 17 -6 19 -12 3 -7 7 -2 10 10 5 17 2
22 -13 22 -10 0 -19 5 -19 10 0 6 6 10 13 10 7 0 21 6 32 13 16 12 10 13 -39
9 -52 -4 -57 -3 -55 14 2 11 -2 29 -9 42 -11 19 -10 22 6 22 27 0 47 28 43 59
-5 45 -38 71 -37 29 1 -14 -6 -24 -16 -26 -14 -3 -18 3 -18 23 0 14 7 28 15
31 8 4 15 10 15 15 0 4 -8 5 -17 2 -13 -5 -15 -2 -10 11 4 10 7 21 7 26 0 5
13 5 30 0 38 -11 47 3 20 30 -26 26 -25 29 3 23 16 -3 18 -2 8 5 -7 5 -11 15
-7 20 9 16 -54 -6 -77 -26 -23 -21 -30 -11 -11 16 8 12 24 22 35 22 10 0 19 4
19 9 0 6 -10 8 -22 6 -12 -3 -26 1 -31 8 -5 8 -6 4 -3 -9 7 -23 -15 -47 -51
-58 -17 -6 -23 -3 -23 8 0 9 8 16 19 16 12 0 25 11 33 28 10 19 23 28 48 32
l35 6 -42 7 c-47 8 -50 11 -28 33 8 9 15 26 15 38 0 13 7 29 16 37 10 8 14 23
12 41 -3 17 0 28 7 28 7 0 20 9 30 20 17 19 17 19 -15 10 -42 -12 -77 -3 -91
22 -10 19 -12 19 -30 2 -24 -21 -24 -33 -1 -28 31 8 47 -11 37 -42 -8 -20 -17
-28 -38 -29 -16 0 -31 3 -34 8 -3 5 -9 3 -14 -4 -4 -8 -3 -20 4 -28 10 -12 9
-14 -5 -8 -13 4 -30 -5 -57 -33 -43 -43 -71 -51 -71 -20 0 63 -53 96 -141 88
-27 -3 -49 -2 -49 3 0 9 40 24 56 21 6 -1 20 8 32 20 l21 23 -47 -4 c-47 -3
-83 -24 -79 -44 1 -6 -5 -12 -13 -13 -8 0 -17 -2 -20 -3 -21 -10 -40 -7 -40 6
0 8 6 13 13 10 8 -3 38 17 68 44 33 29 48 48 38 49 -22 0 -69 -38 -69 -56 0
-8 -4 -14 -10 -14 -24 0 -7 40 25 59 19 11 35 27 35 36 0 11 -9 7 -30 -15 -34
-35 -41 -36 -64 -11 -20 22 -46 17 -46 -8 0 -12 2 -13 9 -3 6 11 10 10 15 -4
4 -11 -1 -25 -14 -39 -11 -12 -17 -25 -13 -28 3 -4 -3 -7 -15 -7 -22 0 -22 0
-2 20 19 19 19 20 -7 46 -24 25 -27 25 -39 9 -7 -9 -17 -15 -21 -12 -5 3 -15
1 -23 -4 -13 -8 -12 -11 3 -23 21 -16 22 -26 2 -26 -8 0 -20 9 -27 20 -9 14
-23 20 -48 20 l-35 -1 25 -14 c14 -8 23 -15 20 -15 -41 -9 -57 -7 -88 12 -20
12 -30 24 -24 26 7 2 12 8 12 14 0 6 18 37 39 69 22 33 36 57 30 54 -5 -4 -9
-2 -9 4 0 21 36 16 52 -9 10 -14 18 -19 18 -12 0 8 5 10 12 6 6 -4 2 8 -10 28
l-22 36 25 16 c33 22 45 20 17 -4 -23 -19 -18 -32 8 -21 17 7 24 25 23 61 -2
34 -12 90 -18 101 -8 12 -35 12 -35 -1z"/>
<path d="M6595 6075 c-11 -9 -14 -13 -6 -9 11 5 13 3 8 -9 -3 -9 0 -23 7 -29
12 -11 12 -16 -1 -30 -15 -16 -17 -16 -32 14 -9 18 -23 34 -31 36 -9 3 -6 -5
9 -21 21 -23 22 -29 11 -61 -10 -30 -9 -44 5 -80 10 -25 23 -47 31 -50 16 -6
19 -56 4 -56 -5 0 -10 8 -10 17 0 9 -3 13 -7 10 -3 -4 -13 -2 -20 5 -11 9 -17
9 -24 -3 -13 -21 0 -71 27 -100 16 -16 24 -37 24 -60 0 -45 10 -80 21 -73 5 3
9 -5 9 -16 0 -19 -4 -21 -26 -16 -17 5 -23 3 -19 -4 3 -5 12 -10 19 -10 8 0
16 -11 18 -25 4 -17 1 -25 -8 -25 -15 0 -29 -42 -21 -62 3 -7 6 -1 6 14 1 36
19 45 27 13 3 -13 10 -22 15 -19 5 3 7 9 4 14 -3 5 -1 11 5 15 10 6 15 -27 12
-79 -3 -36 25 -66 53 -56 18 7 18 9 -7 20 -28 13 -37 43 -18 55 6 4 10 3 9 -2
-5 -29 5 -29 31 -1 16 18 30 27 30 21 0 -29 20 -10 20 20 0 17 8 41 17 52 15
20 15 19 10 -5 -3 -14 -8 -41 -11 -60 l-6 -35 15 30 c12 26 14 27 15 8 0 -32
-18 -75 -30 -68 -5 3 -10 1 -10 -6 0 -10 -3 -10 -11 -2 -19 19 -40 4 -33 -23
5 -18 2 -24 -10 -24 -9 0 -16 -7 -16 -15 0 -19 29 -20 36 0 4 8 10 12 15 9 5
-3 9 -1 9 5 0 5 -4 13 -10 16 -5 3 -10 11 -10 17 0 7 4 7 13 1 22 -18 61 1 69
32 5 22 6 16 5 -23 -1 -29 2 -52 8 -53 6 0 -1 -4 -13 -10 -13 -5 -26 -18 -29
-29 -3 -11 -12 -19 -21 -18 -9 2 -16 -6 -18 -21 -3 -17 0 -22 11 -17 23 9 29
-36 11 -96 -8 -29 -13 -54 -11 -57 3 -2 5 1 5 7 0 7 5 12 10 12 6 0 10 -6 10
-14 0 -17 40 -69 48 -62 3 4 -10 27 -28 53 -30 42 -31 46 -12 41 19 -5 20 -3
12 12 -6 10 -10 27 -10 37 0 15 2 14 16 -5 15 -22 74 -32 74 -12 0 6 -9 10
-20 10 -35 0 -72 45 -68 83 2 17 7 30 12 27 5 -3 13 6 17 19 8 20 11 21 25 10
10 -8 12 -15 5 -17 -20 -7 -2 -20 19 -15 16 4 18 8 9 19 -9 11 -8 18 1 29 17
20 5 32 -15 15 -10 -8 -15 -9 -15 -1 0 6 4 11 9 11 6 0 5 15 -1 37 -7 26 -7
38 0 41 6 2 8 10 5 19 -5 13 -2 15 16 10 31 -8 25 1 -47 67 -49 45 -58 57 -40
54 19 -2 24 2 26 25 2 15 8 27 13 27 6 0 7 -4 4 -10 -9 -15 4 -12 21 5 19 19
29 19 48 0 8 -8 22 -12 30 -9 9 3 23 1 31 -6 20 -16 45 -5 45 20 0 28 17 25
24 -5 6 -23 26 -36 26 -17 0 10 -60 122 -66 122 -2 0 1 -12 6 -26 12 -32 12
-34 0 -34 -5 0 -10 7 -10 16 0 23 -50 104 -64 104 -7 0 -22 9 -34 20 -32 30
-44 25 -36 -15 5 -29 1 -41 -26 -75 -26 -32 -35 -38 -46 -29 -18 15 -18 27 2
47 13 13 15 30 12 84 l-5 68 27 0 c38 0 59 26 38 46 -12 13 -20 14 -36 5 -32
-17 -60 -13 -67 10 -8 24 -5 28 25 34 12 2 25 6 27 9 8 7 -17 47 -26 41 -5 -2
-14 2 -21 10 -25 31 -70 11 -70 -31 0 -33 -10 -54 -26 -54 -7 0 -21 -11 -30
-25 -21 -32 -30 -32 -28 3 1 15 3 37 3 50 1 14 5 20 12 17 6 -4 8 -13 5 -21
-3 -8 -1 -14 3 -14 24 0 27 66 5 98 -9 13 -19 34 -23 48 -6 23 -7 24 -26 9z"/>
<path d="M5562 5980 c-12 -5 -30 -7 -40 -3 -11 4 -9 0 7 -13 21 -18 22 -21 7
-33 -18 -15 -23 -56 -5 -45 20 12 69 14 69 3 0 -6 -9 -9 -19 -6 -26 6 -64 -34
-59 -64 5 -34 21 -32 38 4 15 32 26 36 66 23 17 -5 23 -2 27 16 6 22 6 22 38
-7 l32 -30 -6 33 c-9 45 10 40 29 -8 9 -23 18 -39 21 -37 2 2 -5 24 -16 48
-21 49 -64 95 -80 85 -5 -4 -12 -2 -16 3 -4 8 -65 43 -69 40 -1 0 -11 -4 -24
-9z"/>
<path d="M4637 5944 c-4 -4 1 -12 10 -19 15 -11 15 -14 1 -34 -15 -22 -14 -61
2 -61 4 0 11 -11 14 -25 4 -14 11 -25 16 -25 6 0 6 -9 0 -24 -6 -17 -5 -26 2
-28 7 -3 9 -12 5 -22 -6 -16 -8 -16 -23 -2 -8 9 -20 16 -26 16 -6 0 -17 8 -25
18 -12 15 -13 15 -8 -8 13 -65 10 -104 -7 -108 -11 -2 -22 7 -31 25 -16 31
-12 53 9 53 38 0 -10 80 -56 95 -17 6 -21 4 -14 -6 4 -8 16 -20 26 -27 16 -12
15 -15 -13 -45 -26 -27 -30 -37 -25 -67 3 -19 6 -42 6 -50 0 -13 2 -13 9 -1 8
12 12 12 25 2 20 -17 20 -45 1 -61 -13 -10 -19 -10 -33 3 -25 23 -70 31 -87
17 -34 -28 0 -127 36 -104 9 5 10 2 5 -12 -5 -10 -10 -35 -13 -54 -7 -48 13
-64 71 -58 34 4 45 1 54 -13 15 -23 -1 -29 -46 -17 -18 5 -43 7 -55 5 -19 -4
-18 -4 5 -6 15 0 30 -6 33 -11 4 -6 16 -8 27 -4 17 5 19 3 13 -15 -4 -13 -2
-21 5 -21 7 0 10 -7 6 -15 -6 -17 19 -45 40 -45 20 0 18 -10 -8 -37 -17 -19
-19 -23 -5 -17 12 4 17 1 17 -10 0 -9 -4 -16 -8 -16 -5 0 -17 -7 -28 -16 -10
-8 -13 -12 -5 -8 10 5 11 1 6 -17 -7 -21 -6 -22 9 -10 14 12 16 11 16 -3 0 -9
3 -16 6 -16 17 0 33 39 34 79 0 37 -2 42 -15 31 -23 -19 -17 2 10 33 29 32 35
34 35 7 0 -20 52 -55 64 -43 3 4 6 -3 6 -15 0 -27 -8 -28 -26 -4 -10 14 -15
15 -26 4 -19 -19 2 -45 46 -55 35 -9 52 -36 20 -33 -9 0 -19 -5 -21 -11 -3 -8
4 -13 16 -13 27 0 27 -14 -1 -33 -13 -9 -18 -16 -11 -16 6 -1 15 4 18 9 5 8
11 8 20 0 9 -8 15 -8 20 0 3 5 1 10 -6 10 -8 0 -10 13 -6 41 6 45 14 59 25 42
13 -20 47 -8 50 18 7 51 24 44 20 -9 -1 -28 0 -52 5 -52 4 0 7 -4 7 -10 0 -5
-7 -10 -15 -10 -8 0 -17 -11 -21 -24 -4 -16 -11 -22 -23 -19 -14 3 -17 -1 -16
-19 1 -15 8 -22 17 -20 23 4 29 -37 17 -103 -10 -56 -7 -85 6 -46 4 13 11 18
22 14 13 -5 13 -2 -2 26 -21 42 -14 49 18 17 30 -29 42 -32 50 -12 4 10 -4 17
-24 21 -22 5 -35 16 -45 41 -18 44 -18 84 1 84 9 0 12 6 8 16 -4 12 -2 15 8
12 8 -3 14 -11 15 -19 2 -28 4 -30 19 -16 8 9 20 17 27 19 8 3 9 11 3 24 -8
18 -9 18 -12 -3 -3 -13 -9 -23 -14 -23 -7 0 -8 12 -4 30 5 23 3 29 -7 25 -10
-4 -13 8 -14 45 0 27 3 50 8 50 5 0 4 9 -3 21 -10 19 -8 20 10 14 33 -10 26 1
-41 64 -53 50 -59 58 -38 57 19 -1 24 4 25 24 0 34 51 53 70 27 10 -13 14 -15
17 -5 4 11 9 10 30 -1 44 -23 65 11 33 53 -18 23 -11 36 15 29 30 -8 25 21 -7
47 -15 12 -28 29 -28 38 0 9 -6 16 -13 14 -8 -1 -11 6 -8 23 3 14 0 25 -5 25
-6 0 -7 5 -4 11 5 6 12 4 22 -8 14 -17 14 -17 10 4 -3 12 1 27 9 34 8 6 14 16
14 21 0 6 -7 5 -15 -2 -8 -7 -15 -8 -15 -2 0 5 -9 12 -20 15 -25 7 -25 22 0
47 19 19 19 19 -11 45 -43 36 -79 34 -43 -2 14 -15 13 -17 -19 -28 -19 -7 -47
-22 -62 -33 -35 -28 -39 -27 -53 3 -16 34 -18 31 28 49 23 9 44 24 47 34 4 9
11 20 16 23 12 9 0 29 -18 29 -7 0 -23 -12 -34 -26 -17 -22 -22 -24 -27 -10
-8 21 -41 20 -52 -1 -5 -10 -7 -32 -5 -50 2 -17 -1 -34 -7 -38 -5 -3 -10 -17
-10 -31 0 -13 -4 -24 -8 -24 -5 0 -7 15 -6 33 9 89 5 117 -22 166 -22 41 -25
53 -14 65 6 9 15 14 18 13 4 -1 8 3 9 8 0 6 -3 9 -9 7 -5 -1 -7 2 -3 8 3 5 13
10 21 10 8 0 12 4 9 10 -4 6 -13 5 -26 -3 -16 -9 -21 -9 -27 1 -5 7 -11 9 -15
6z m293 -309 c0 -9 -6 -15 -12 -14 -35 4 -42 -2 -19 -17 18 -13 20 -19 10 -26
-11 -8 -11 -9 2 -5 23 7 44 -30 28 -49 -10 -13 -16 -11 -42 13 l-30 28 7 -34
c7 -38 -21 -131 -40 -131 -6 0 -17 6 -23 14 -10 12 -9 20 4 40 13 19 15 36 10
68 -4 24 -11 48 -16 54 -15 18 1 44 27 44 14 0 27 7 30 15 8 21 64 20 64 0z
m-169 -210 c-1 -11 2 -43 9 -70 9 -37 9 -61 1 -90 -11 -42 -7 -55 11 -37 19
19 33 14 15 -6 -21 -23 -21 -39 -2 -58 13 -14 15 -11 17 23 1 21 2 46 2 55 -1
13 3 15 13 7 7 -6 10 -15 8 -20 -3 -4 -7 -25 -9 -46 -2 -21 -1 -30 1 -20 9 35
25 17 18 -20 -8 -46 -35 -68 -50 -42 -5 7 -13 5 -25 -6 -18 -16 -40 -13 -40 4
0 5 12 20 27 35 21 22 24 29 13 36 -7 4 -24 4 -37 -1 -31 -12 -30 -12 -37 8
-4 9 1 25 13 37 11 12 21 37 23 56 2 21 8 34 16 33 14 -3 16 8 4 23 -15 17
-35 92 -28 109 9 23 42 14 37 -10z"/>
<path d="M5470 5929 c-57 -25 -56 -24 -32 -49 12 -13 18 -29 15 -39 -8 -22
-44 -51 -64 -51 -20 0 -30 -21 -22 -48 6 -26 -34 -52 -48 -31 -12 19 -11 25 6
43 15 14 11 46 -5 46 -5 0 -12 9 -15 20 -3 11 -12 20 -20 20 -18 0 -30 -39
-16 -53 17 -17 13 -24 -21 -32 -33 -8 -33 -8 -6 -12 37 -6 54 -28 38 -48 -9
-10 -17 -12 -23 -6 -5 5 -16 7 -23 4 -26 -10 -14 -22 30 -28 37 -6 43 -10 39
-26 -3 -11 0 -26 7 -34 26 -31 108 -6 94 29 -5 13 -1 15 24 10 36 -7 72 10 72
36 0 10 8 32 17 48 17 29 17 31 0 50 -10 11 -17 26 -16 34 2 7 0 26 -4 41 -5
19 -3 39 8 59 8 17 14 32 12 34 -1 2 -22 -6 -47 -17z"/>
<path d="M4339 5789 c-17 -14 -19 -19 -7 -15 26 8 31 -11 11 -39 -19 -26 -48
-33 -56 -12 -4 7 -8 3 -12 -10 -4 -13 -13 -23 -21 -23 -12 0 -228 -261 -230
-278 0 -4 -19 -27 -42 -51 -23 -24 -42 -53 -42 -63 0 -10 -5 -17 -12 -16 -7 2
-12 -11 -14 -29 -1 -18 2 -30 7 -27 5 3 9 -4 9 -16 0 -13 -4 -19 -12 -14 -7 4
-8 3 -4 -4 4 -7 1 -12 -7 -12 -13 0 -27 -20 -27 -36 0 -13 42 20 50 39 5 12
14 37 22 55 17 43 43 44 34 1 -4 -24 -2 -35 11 -45 10 -7 15 -15 12 -19 -4 -3
-14 1 -22 10 -20 20 -27 19 -27 -3 0 -25 41 -72 47 -54 6 16 23 15 23 -2 0 -7
9 -16 20 -19 21 -5 29 -29 8 -25 -7 2 -12 -2 -13 -9 -1 -26 -23 -37 -51 -24
-15 6 -29 10 -31 7 -9 -8 8 -26 23 -26 8 0 12 -4 9 -10 -9 -15 -36 -12 -58 8
-19 16 -20 16 -8 -5 11 -21 23 -28 44 -24 23 4 -4 -25 -31 -35 -18 -5 -37 -15
-44 -22 -18 -18 20 -16 56 3 28 15 28 15 22 -11 l-7 -26 25 19 c14 10 28 32
32 50 4 22 10 30 20 26 8 -3 14 0 14 6 0 6 -4 11 -10 11 -17 0 -11 15 20 50
17 18 30 38 30 43 0 5 11 7 25 5 17 -4 25 -1 25 8 0 24 17 15 30 -16 7 -16 9
-41 6 -54 -3 -14 -2 -28 4 -31 5 -3 10 0 10 7 1 8 6 6 15 -6 7 -10 19 -16 25
-14 6 2 3 12 -10 26 -17 18 -19 26 -10 43 13 23 4 99 -11 99 -5 0 -9 -7 -9
-15 0 -8 -4 -15 -10 -15 -14 0 -12 27 3 33 6 2 0 8 -15 12 -29 7 -34 20 -18
45 7 12 10 11 16 -5 10 -27 58 -68 63 -54 2 6 -2 15 -10 19 -10 7 -7 13 12 29
l24 19 -34 -1 c-33 -2 -35 -1 -36 36 -1 21 3 37 9 37 21 0 35 16 51 53 13 32
13 37 0 37 -9 0 -12 -6 -9 -15 4 -10 0 -15 -13 -15 -32 0 -34 12 -7 37 14 12
19 23 12 23 -8 0 -6 6 5 17 14 15 21 15 37 6 23 -15 34 -2 25 27 -5 16 -3 19
11 13 12 -4 15 -3 10 5 -9 16 -49 15 -64 0 -9 -9 -12 -9 -12 0 0 6 9 16 20 22
11 6 20 16 20 23 0 8 -4 7 -10 -3 -5 -8 -12 -11 -16 -7 -14 14 19 38 45 33 24
-6 24 -5 6 5 -30 18 -30 18 -9 38 10 11 30 36 44 57 14 20 35 47 48 59 29 29
28 35 -8 35 -16 0 -30 5 -30 10 0 6 6 10 14 10 8 0 18 5 21 10 12 19 -33 10
-56 -11z"/>
<path d="M5533 5537 c-2 -4 -8 -20 -13 -35 -4 -15 -11 -36 -16 -46 -5 -13 -4
-17 4 -12 21 13 26 -43 7 -64 -17 -19 -17 -20 3 -20 30 0 49 -37 29 -57 -17
-18 -41 -8 -33 13 3 8 1 14 -3 14 -5 0 -11 -7 -15 -15 -3 -8 -10 -15 -16 -15
-6 0 -17 -6 -25 -13 -11 -11 -10 -16 6 -25 16 -10 21 -10 25 3 4 8 15 15 25
15 21 0 26 -16 7 -23 -7 -2 4 -7 26 -11 24 -5 43 -3 49 3 7 7 8 11 1 11 -6 0
-11 7 -11 15 0 8 5 15 11 14 29 -3 47 3 75 27 17 14 31 21 31 15 0 -5 -4 -13
-10 -16 -5 -3 -10 -12 -10 -18 0 -7 5 -4 11 6 15 25 29 21 29 -10 0 -16 4 -34
9 -42 7 -11 12 -4 20 25 6 21 11 53 11 69 0 17 9 45 21 64 24 39 18 55 -6 17
-12 -18 -26 -26 -46 -26 -16 0 -29 -5 -29 -11 0 -5 5 -7 10 -4 6 3 10 3 10 0
0 -11 -69 -35 -100 -35 -34 0 -37 7 -12 27 14 12 14 14 1 10 -8 -3 -21 4 -28
15 -10 16 -15 17 -28 6 -14 -11 -15 -9 -8 22 4 19 14 44 21 55 21 30 16 43 -6
15 -11 -14 -20 -21 -20 -17 0 13 22 51 34 59 6 4 0 6 -12 5 -13 -1 -26 -5 -29
-10z"/>
<path d="M3396 5518 c-18 -68 3 -128 39 -114 8 3 77 0 152 -6 76 -6 164 -8
196 -4 l57 7 0 39 c0 21 -3 45 -6 54 -7 17 -34 22 -34 6 0 -5 -21 -7 -49 -3
-48 5 -49 5 -44 -21 7 -34 -23 -36 -38 -2 -9 19 -22 26 -61 31 -27 4 -52 4
-55 1 -4 -3 1 -6 10 -6 26 0 20 -29 -8 -42 -18 -8 -28 -8 -39 1 -9 7 -15 16
-14 19 2 23 -6 30 -42 36 -22 3 -40 11 -40 16 0 19 -18 10 -24 -12z"/>
<path d="M7077 5514 c5 -15 0 -16 -42 -10 -26 4 -55 10 -64 12 -9 3 3 -7 27
-21 40 -26 54 -45 31 -45 -5 0 -8 -4 -5 -9 3 -4 -8 -6 -25 -2 -16 3 -29 8 -28
11 6 14 -23 49 -37 43 -13 -5 -13 -8 3 -25 16 -18 16 -21 3 -31 -17 -13 -25
-67 -10 -67 5 0 7 -6 4 -13 -3 -8 4 -13 17 -14 14 -1 19 3 15 12 -3 8 -1 17 5
20 5 4 13 -4 18 -17 6 -13 10 -19 10 -14 1 6 7 2 14 -8 11 -15 18 -17 33 -8
18 11 18 11 -2 12 -12 0 -24 7 -27 15 -12 28 13 25 56 -8 37 -28 43 -37 34
-52 -8 -15 -7 -17 8 -11 12 4 27 -1 43 -16 l24 -23 -6 23 c-6 16 -3 22 8 22 9
0 16 7 16 15 0 8 -7 15 -16 15 -10 0 -14 6 -10 15 3 8 1 15 -4 15 -6 0 -10 9
-10 19 0 11 -5 23 -10 26 -7 4 -9 -2 -4 -19 5 -21 2 -26 -21 -32 -14 -4 -31
-2 -36 3 -7 7 -2 13 15 17 31 8 34 31 6 46 -14 7 -20 7 -20 0 0 -5 5 -10 10
-10 6 0 10 -4 10 -10 0 -5 -12 -10 -27 -10 -23 0 -28 4 -28 24 0 19 7 26 28
30 16 3 26 10 23 15 -4 5 -1 11 5 13 8 3 6 9 -5 20 -9 9 -16 24 -16 32 0 9 -4
16 -10 16 -5 0 -7 -7 -3 -16z"/>
<path d="M5051 5273 c-68 -4 -72 -5 -55 -19 18 -14 18 -15 1 -10 -11 4 -16 2
-12 -5 4 -5 15 -7 24 -4 10 3 24 -1 31 -10 10 -12 10 -15 -3 -15 -8 0 -17 -4
-19 -9 -6 -16 -48 8 -48 28 0 24 -11 33 -28 22 -10 -6 -9 -11 2 -21 9 -7 13
-17 9 -23 -10 -17 -12 -76 -2 -83 5 -3 7 -10 4 -15 -4 -5 1 -9 10 -9 11 0 15
5 11 15 -3 9 0 15 9 15 8 0 15 -7 15 -15 0 -8 7 -15 15 -15 8 0 12 6 9 14 -11
30 15 24 45 -9 17 -19 35 -35 40 -35 5 0 7 -10 3 -22 -4 -17 -2 -20 13 -15 12
5 24 -1 40 -19 l23 -26 -5 26 c-4 21 -2 26 16 26 28 0 26 16 -5 36 -17 11 -24
24 -21 36 4 13 0 18 -14 18 -10 0 -19 -6 -19 -14 0 -21 -26 -27 -47 -11 -17
14 -17 14 2 16 11 1 23 1 28 0 4 0 7 8 7 19 0 22 -35 46 -45 30 -3 -5 -1 -10
4 -10 6 0 11 -4 11 -10 0 -22 -38 -9 -42 14 -4 20 1 26 34 37 29 9 41 10 50 1
17 -17 26 -15 24 6 0 9 -12 20 -26 23 -25 7 -25 7 -3 14 31 10 39 36 10 33
-12 -1 -55 -4 -96 -5z"/>
<path d="M3646 5160 c-11 -33 -23 -60 -28 -60 -5 0 -2 -7 6 -16 9 -8 16 -19
16 -24 0 -5 8 -7 18 -3 9 3 -2 -12 -25 -33 l-43 -39 16 -35 15 -35 29 35 c34
40 36 47 15 47 -8 0 -11 -5 -8 -10 3 -6 1 -7 -4 -4 -6 4 -10 -1 -9 -10 0 -9
-6 -18 -14 -20 -12 -4 -13 -3 -1 5 7 5 10 15 7 21 -9 15 34 52 53 45 8 -2 22
3 32 12 20 18 26 40 8 28 -8 -4 -8 0 0 15 13 23 9 26 -19 11 -16 -8 -18 -8
-14 5 4 8 1 15 -7 15 -7 0 -9 3 -6 7 4 3 2 12 -4 20 -9 10 -8 13 3 13 8 0 23
7 34 15 18 15 17 16 -13 10 -26 -5 -33 -3 -33 9 0 9 3 15 8 15 4 -1 14 -1 22
0 13 1 13 2 0 11 -27 18 -35 11 -54 -50z"/>
<path d="M6110 5138 c-5 -15 -7 -23 -14 -50 -5 -15 -23 -36 -41 -47 -18 -11
-38 -29 -45 -40 -9 -18 -8 -21 10 -21 11 0 29 9 40 20 28 28 36 25 16 -5 -20
-31 -4 -33 17 -2 l16 22 1 -25 c1 -34 15 -54 30 -45 10 6 12 -2 7 -35 -4 -29
-2 -39 4 -29 5 7 9 22 9 31 0 9 4 18 10 20 6 2 4 15 -5 32 -20 39 -19 40 15
15 16 -13 33 -20 36 -16 9 9 -15 37 -31 37 -15 0 -58 50 -50 58 3 3 16 -5 30
-18 36 -33 31 -16 -9 33 -18 23 -36 49 -39 57 -3 8 -6 12 -7 8z"/>
<path d="M4424 5096 c5 -16 4 -17 -9 -6 -13 11 -14 10 -9 -5 5 -12 4 -16 -3
-12 -6 4 -16 1 -22 -7 -8 -10 -8 -16 3 -25 11 -9 15 -9 18 0 3 8 21 -4 46 -29
41 -41 58 -68 26 -41 -14 11 -18 10 -30 -6 -16 -22 -18 -41 -4 -50 6 -3 10
-22 10 -42 0 -30 2 -34 15 -23 10 9 15 9 16 1 1 -6 3 -15 4 -21 1 -5 3 -16 4
-23 0 -7 16 -18 34 -26 17 -7 27 -15 20 -18 -7 -2 -10 -10 -7 -17 5 -13 -27
-19 -36 -6 -10 14 -50 22 -50 10 0 -7 -8 -9 -20 -5 -11 4 -20 2 -20 -4 0 -22
-16 -10 -34 24 -19 35 -41 49 -29 19 5 -14 3 -15 -17 -4 -18 10 -21 9 -18 -1
2 -7 19 -17 37 -21 35 -10 38 -30 9 -62 -16 -18 -16 -21 -1 -47 12 -19 13 -32
7 -41 -6 -7 -11 -29 -12 -48 -2 -24 1 -31 7 -21 5 7 14 11 20 7 7 -4 9 -1 5 7
-4 11 9 20 47 32 45 15 50 19 36 30 -28 20 -19 29 10 10 19 -13 28 -14 31 -6
2 6 8 8 14 5 5 -4 3 5 -6 18 -9 14 -13 28 -9 33 5 4 -13 5 -39 3 -48 -6 -63 3
-30 18 33 15 97 11 139 -8 46 -22 75 -48 52 -48 -10 0 -10 -3 -1 -12 7 -7 12
-16 12 -22 0 -14 -39 24 -45 45 -4 11 -11 19 -17 19 -6 0 -20 7 -30 17 -32 29
-30 6 2 -31 32 -36 32 -36 8 -36 -13 0 -33 -7 -44 -16 -19 -15 -18 -15 4 -11
23 5 22 -3 -6 -36 -24 -28 -9 -29 32 -1 25 17 48 25 69 23 18 -2 38 0 44 4 7
4 14 -1 18 -12 7 -23 84 -83 97 -75 4 3 11 -9 14 -26 4 -17 11 -33 16 -36 6
-4 7 2 3 16 -6 17 0 29 26 52 27 25 36 28 56 19 24 -11 32 -41 11 -41 -10 0
-10 -2 -1 -8 8 -5 9 -13 3 -22 -7 -12 -12 -12 -21 -3 -9 9 -18 9 -31 2 -17 -9
-19 -19 -16 -67 3 -61 5 -60 -56 -46 -47 11 -73 -37 -40 -71 15 -15 15 -17 -5
-31 -38 -27 -24 -104 19 -104 8 0 23 -9 33 -20 9 -11 23 -20 31 -20 23 0 66
-51 66 -80 0 -33 -9 -43 -27 -29 -9 8 -13 8 -13 1 0 -6 8 -16 18 -21 15 -9 13
-10 -9 -11 -20 0 -28 -6 -33 -25 -4 -14 -11 -23 -16 -20 -17 11 -11 61 11 90
18 22 20 29 8 36 -8 5 -18 9 -24 9 -5 0 -27 19 -47 42 -21 24 -38 37 -38 30 0
-8 14 -27 30 -42 57 -54 21 -69 -56 -24 -24 14 -44 21 -44 16 0 -5 18 -19 41
-30 22 -11 35 -23 30 -27 -15 -8 -14 -25 1 -25 6 0 19 6 27 14 24 21 64 31 59
15 -2 -7 -15 -16 -29 -20 -13 -4 -19 -8 -14 -8 20 -2 -21 -21 -46 -21 -32 0
-42 9 -28 27 6 7 7 13 3 13 -5 0 -22 12 -37 26 -28 25 -28 32 -9 83 4 10 1 12
-8 6 -10 -6 -12 -4 -7 8 4 11 1 17 -8 17 -8 0 -15 -4 -15 -8 0 -8 -14 -16 -62
-40 -5 -2 -8 7 -8 20 0 18 -2 20 -9 9 -6 -10 -4 -25 5 -43 14 -27 34 -30 34
-5 0 7 10 18 21 25 20 13 21 12 15 -12 -3 -14 -2 -26 3 -26 16 0 23 -38 11
-60 -9 -17 -8 -20 8 -20 29 0 35 -38 11 -69 -18 -23 -19 -26 -5 -29 9 -2 16
-8 16 -13 0 -5 7 -9 15 -9 8 0 15 9 15 20 0 12 7 20 17 20 9 0 24 7 33 15 26
23 46 9 49 -33 2 -20 3 -45 4 -54 1 -16 2 -16 21 0 18 16 19 16 13 0 -4 -10
-2 -18 4 -18 7 0 9 10 5 28 l-7 27 25 -30 c13 -16 28 -27 32 -22 4 4 2 7 -4 7
-7 0 -12 4 -12 10 0 5 7 7 16 3 15 -5 15 -3 -1 20 -9 15 -24 27 -31 27 -22 0
-16 28 8 41 16 9 23 9 26 0 2 -6 8 -11 14 -11 7 0 6 5 -1 14 -9 10 -7 17 6 27
15 12 16 12 9 -5 -7 -19 -6 -19 14 -1 11 10 20 13 20 7 0 -6 3 -19 7 -29 6
-16 5 -16 -10 -4 -15 12 -17 12 -11 -4 5 -13 4 -16 -4 -11 -8 5 -12 0 -12 -13
0 -24 22 -28 40 -6 7 8 16 12 21 9 5 -3 4 7 -1 22 -7 19 -7 30 1 40 9 10 9 17
0 28 -9 11 -6 12 14 8 21 -4 24 -8 18 -31 -15 -53 -9 -83 20 -104 21 -16 30
-18 39 -9 16 16 28 15 28 -3 0 -8 7 -15 15 -15 8 0 15 -7 15 -16 0 -13 -6 -15
-27 -10 -65 15 -83 16 -83 1 0 -8 8 -12 18 -11 9 2 37 0 62 -3 42 -6 44 -7 23
-19 -17 -10 -27 -10 -41 -1 -11 7 -27 9 -38 4 -17 -7 -16 -9 10 -20 24 -10 25
-13 11 -19 -10 -3 -29 0 -44 7 -24 12 -27 12 -27 -5 0 -10 5 -17 11 -14 6 2
24 -2 40 -9 l30 -13 -35 -14 c-19 -8 -43 -18 -52 -21 -10 -4 -18 -10 -18 -15
0 -13 58 -5 85 12 23 15 24 15 27 -9 3 -22 5 -22 22 -9 14 10 20 25 19 50 -1
34 12 37 18 4 8 -42 -14 -96 -54 -134 -35 -33 -39 -41 -24 -44 10 -2 26 3 36
12 26 24 35 19 17 -9 -20 -31 -4 -33 17 -2 l16 22 0 -22 c1 -33 12 -53 28 -53
12 0 14 -8 10 -40 -3 -23 -1 -38 4 -34 5 3 9 16 9 30 0 13 5 24 10 24 15 0 12
26 -5 40 -8 7 -15 20 -15 28 0 14 1 14 13 0 18 -23 67 -52 67 -40 0 6 -22 29
-50 52 -27 23 -50 47 -50 53 0 6 10 1 23 -11 39 -37 38 -25 -3 35 -40 56 -47
73 -32 73 4 0 13 -13 19 -29 6 -16 21 -35 34 -41 l24 -13 -24 27 c-14 14 -22
29 -18 32 3 4 -3 18 -13 32 -11 13 -20 36 -21 51 0 14 -3 20 -6 14 -5 -15 -23
-17 -23 -4 0 5 11 23 25 39 14 17 25 37 25 45 0 12 10 14 44 11 33 -3 45 0 50
11 8 22 25 18 37 -9 7 -15 17 -22 26 -19 11 4 14 -1 13 -23 -3 -46 -1 -54 16
-54 9 0 23 -8 31 -17 13 -16 14 -15 8 11 l-6 28 27 -21 c33 -26 40 -21 23 18
-10 23 -16 27 -26 19 -17 -14 -16 2 2 26 23 30 20 60 -6 53 -16 -4 -18 -3 -8
9 9 11 9 17 -1 29 -8 9 -9 15 -2 15 6 0 14 -5 18 -11 4 -8 9 -7 15 2 14 22 11
29 -11 29 -11 0 -20 5 -20 10 0 6 8 10 19 10 10 0 23 6 29 13 8 9 -2 11 -49 9
-57 -4 -59 -3 -59 22 0 13 -4 28 -10 31 -16 10 -12 25 8 25 9 0 25 7 35 14 19
14 24 31 6 20 -7 -4 -7 1 1 16 9 18 8 25 -6 41 -22 25 -34 24 -27 -1 4 -16 0
-20 -21 -20 -31 0 -33 14 -6 37 23 20 27 38 5 30 -17 -7 -30 9 -15 18 6 4 7
11 4 17 -6 9 11 6 52 -9 24 -9 27 20 4 39 -22 18 -22 19 -5 38 17 19 16 19
-21 9 -22 -6 -43 -15 -48 -20 -19 -18 -29 -8 -11 11 10 11 26 20 37 20 10 0
18 5 18 11 0 7 -10 9 -25 5 -14 -4 -25 -2 -25 4 0 5 -5 10 -10 10 -6 0 -10 -6
-9 -12 3 -27 -2 -35 -26 -46 -31 -14 -45 -15 -45 -3 0 5 12 12 26 15 15 4 29
17 35 34 8 24 14 27 43 24 19 -2 36 0 39 5 3 4 -9 8 -27 9 -18 0 -41 4 -52 8
-18 7 -18 8 -1 17 10 6 17 22 17 38 0 16 7 34 15 41 8 7 15 25 15 41 0 18 5
29 14 29 8 0 24 8 36 18 l22 18 -24 2 c-12 1 -45 2 -72 2 l-48 0 23 20 24 19
-26 1 c-15 0 -43 -14 -65 -31 -38 -31 -34 -33 22 -12 6 2 17 -3 24 -11 10 -13
9 -20 -4 -40 -15 -24 -17 -25 -80 -13 -6 1 -10 -8 -8 -21 1 -15 -2 -22 -10
-19 -7 2 -13 14 -12 26 1 26 -17 27 -39 3 -23 -25 -21 -35 4 -29 30 8 19 -14
-21 -41 -40 -26 -54 -24 -58 9 -8 63 -45 89 -128 89 -55 0 -56 11 -2 31 56 21
59 36 6 35 -51 -2 -71 -12 -64 -32 4 -10 -2 -13 -19 -12 -34 3 -31 12 9 37 32
20 52 48 42 59 -9 8 -56 -28 -56 -43 0 -8 -4 -15 -9 -15 -16 0 1 40 25 59 13
10 24 25 24 32 0 7 -13 0 -30 -16 l-29 -28 -19 23 c-18 23 -42 21 -42 -3 0 -7
4 -6 10 3 8 12 10 11 10 -7 0 -28 -10 -53 -22 -53 -5 0 -6 5 -3 10 3 6 0 17
-7 25 -38 42 -38 43 -22 59 8 9 22 16 31 16 8 0 13 6 10 13 -5 15 -57 12 -70
-5 -6 -10 -7 -8 -4 4 3 9 1 18 -6 21 -8 2 -8 13 1 44 18 59 15 72 -8 35 -11
-18 -17 -39 -14 -45 4 -7 -1 -4 -11 5 -17 16 -19 16 -31 0 -12 -15 -13 -14
-14 10 0 14 -3 34 -6 42 -5 14 -2 15 19 7 21 -8 26 -6 36 15 13 29 21 30 52 6
29 -22 59 -34 59 -24 0 5 -13 21 -29 36 -23 22 -37 27 -60 24 -35 -5 -37 -2
-14 24 15 17 15 18 -11 18 -23 0 -26 -3 -21 -20 8 -24 -10 -27 -19 -4 -4 11 1
22 14 31 19 13 30 40 12 29 -5 -3 -23 4 -41 15 -19 11 -41 17 -52 14 -24 -8
-25 13 -2 30 14 10 15 17 6 36 l-12 24 -1 -25 0 -25 -19 24 -19 25 8 -42 c4
-23 3 -42 -1 -42 -5 0 -9 3 -10 8 -4 40 -12 69 -21 77 -8 7 -9 4 -4 -9z"/>
<path d="M6530 5019 c11 -8 6 -9 -22 -7 -41 4 -52 -13 -20 -31 14 -9 13 -10
-11 -11 -24 0 -26 -2 -15 -19 11 -18 13 -18 24 -3 10 14 11 13 7 -11 -3 -16
-1 -27 6 -27 6 0 11 9 11 20 0 11 4 20 9 20 16 0 24 -21 13 -32 -13 -13 9 -60
26 -53 25 9 11 -16 -15 -26 -16 -7 -22 -13 -16 -16 10 -3 10 -10 2 -25 -13
-24 -9 -29 18 -22 12 3 20 11 17 17 -2 7 16 20 41 30 51 22 60 41 15 35 -16
-3 -30 -2 -30 2 0 14 32 50 46 50 20 0 17 -20 -3 -20 -14 -1 -12 -4 7 -15 18
-10 26 -10 29 -2 2 6 13 19 24 27 16 14 18 20 9 36 -10 17 -11 17 -12 -8 0
-18 -5 -28 -15 -28 -9 0 -12 6 -9 15 7 18 -26 21 -44 3 -6 -6 -14 -9 -18 -5
-10 9 33 50 45 42 6 -3 11 0 11 7 0 18 -29 57 -30 41 0 -7 -5 -13 -12 -13 -6
0 -20 -8 -31 -17 -18 -16 -20 -16 -14 -1 3 9 0 19 -9 22 -8 3 -14 12 -14 21 0
8 -8 15 -17 15 -16 0 -16 -2 -3 -11z"/>
<path d="M6746 4937 c-9 -7 -22 -23 -29 -36 -7 -13 -16 -23 -21 -22 -14 4 -34
-43 -22 -51 6 -4 11 -15 11 -25 0 -10 5 -17 12 -16 8 2 10 -4 6 -15 -6 -18 0
-13 56 41 24 23 71 14 71 -15 0 -10 -4 -17 -9 -14 -5 4 -7 -4 -4 -15 5 -19 3
-21 -20 -15 -20 5 -32 1 -47 -14 -23 -23 -24 -29 -10 -66 15 -39 -4 -60 -36
-39 -14 9 -25 11 -29 5 -4 -6 -10 -8 -15 -5 -9 5 -20 -28 -20 -62 0 -26 -12
-35 -34 -27 -19 7 -21 35 -4 52 9 9 7 17 -10 35 -12 13 -22 29 -22 36 0 11 -3
11 -16 0 -11 -9 -14 -22 -9 -47 4 -20 2 -32 -3 -28 -5 3 -18 -1 -28 -9 -18
-14 -18 -14 2 -9 25 7 56 -20 48 -41 -7 -17 -34 -20 -34 -4 0 8 -5 8 -15 -1
-23 -19 -7 -32 35 -28 37 3 38 2 33 -24 -4 -22 -1 -29 20 -39 22 -10 31 -9 52
5 14 9 24 22 23 29 -3 12 4 17 22 17 6 0 10 -20 10 -45 0 -29 4 -44 12 -43 6
2 17 -7 23 -20 13 -25 29 -43 23 -27 -1 6 0 11 5 13 19 6 19 0 -1 -21 -12 -12
-23 -34 -24 -47 -2 -14 -10 -30 -18 -37 -19 -15 -10 -24 18 -16 17 4 20 9 12
23 -14 26 -13 27 12 25 19 -1 37 -35 18 -35 -4 0 -10 -11 -12 -25 -6 -30 11
-34 19 -5 3 11 10 20 15 20 5 0 6 9 3 21 -5 14 -1 25 11 33 12 9 14 15 6 20
-7 4 -12 12 -12 18 0 7 5 7 14 -1 7 -6 21 -9 29 -5 13 5 15 0 10 -32 -5 -33
-4 -37 12 -31 13 5 16 3 11 -8 -3 -8 -1 -15 5 -15 6 0 7 -5 3 -12 -5 -8 -13
-5 -25 10 -20 25 -39 29 -39 8 0 -23 46 -46 79 -40 24 5 31 3 31 -10 0 -15 12
-21 33 -17 5 1 7 -4 4 -11 -2 -7 -13 -12 -23 -10 -14 2 -16 1 -5 -6 22 -16 -6
-25 -55 -17 -43 6 -61 -6 -27 -19 12 -5 13 -10 5 -18 -8 -8 -18 -7 -36 6 -21
13 -26 14 -26 2 0 -8 15 -17 35 -20 19 -4 35 -11 35 -16 0 -12 -34 -30 -58
-30 -11 0 -25 -7 -32 -15 -10 -12 -6 -14 26 -9 21 2 45 11 54 19 23 21 28 19
22 -12 l-5 -26 26 19 c25 18 32 36 29 75 -1 9 5 16 12 16 8 0 12 -6 9 -12 -2
-7 3 -19 11 -28 9 -9 16 -22 16 -30 0 -15 31 -47 45 -47 5 0 -2 12 -16 26 -13
15 -19 25 -14 22 6 -2 25 -11 43 -18 22 -10 32 -21 32 -36 0 -29 27 -53 36
-31 8 21 -31 90 -84 152 -38 43 -42 50 -28 61 9 6 16 16 16 21 0 11 56 23 65
14 12 -12 33 -8 28 5 -3 8 -1 14 3 15 5 0 19 2 32 3 23 3 30 -8 12 -19 -6 -4
-8 -11 -4 -16 3 -5 10 -6 16 -3 6 4 9 -8 6 -32 -2 -32 0 -38 14 -36 9 1 19 -6
23 -18 4 -11 11 -18 16 -15 5 4 5 15 -2 27 l-12 21 28 -21 c15 -12 31 -19 36
-16 13 8 -14 45 -28 39 -18 -6 -16 3 7 33 15 19 18 28 9 36 -8 8 -13 7 -16 -1
-7 -18 -23 -16 -23 3 0 8 4 13 9 9 16 -9 24 15 11 30 -10 12 -9 15 3 15 8 0
17 -6 20 -12 2 -7 8 -9 13 -5 5 5 1 14 -9 21 -24 18 -21 26 7 26 14 0 28 5 32
12 5 8 2 9 -10 5 -10 -4 -36 -2 -58 3 -29 8 -38 16 -36 29 2 10 -3 25 -11 34
-12 15 -10 17 17 17 42 0 67 45 41 76 -16 19 -27 17 -25 -3 1 -19 -31 -30 -45
-16 -5 5 -1 18 11 31 24 25 25 33 6 26 -13 -5 -13 -2 -3 19 9 20 15 23 29 16
23 -12 61 -11 53 1 -4 6 -11 7 -17 4 -7 -5 -8 -2 -3 6 4 7 2 16 -6 22 -10 7
-6 8 14 4 27 -6 27 -6 10 12 -13 14 -24 16 -40 11 -13 -5 -23 -6 -23 -4 0 3
-12 -2 -27 -12 -19 -13 -25 -14 -21 -3 4 14 11 18 58 39 l25 11 -27 -3 c-16
-3 -28 0 -28 4 0 5 -4 9 -10 9 -5 0 -7 -6 -5 -12 6 -16 -33 -45 -66 -50 -16
-2 -24 2 -24 12 0 8 5 14 11 13 8 -2 10 6 6 20 -3 12 -7 17 -9 11 -2 -6 -14
-9 -27 -7 -13 3 -27 0 -30 -6 -4 -6 -12 -11 -18 -11 -6 0 -5 6 3 16 11 13 11
15 -2 14 -28 -4 -39 0 -39 15 0 11 12 15 44 15 63 0 105 -17 101 -41 -2 -10 0
-19 6 -19 5 0 9 5 9 11 0 20 34 38 65 33 20 -2 17 0 -10 7 -51 15 -50 14 -25
39 11 11 18 24 16 29 -3 4 6 19 19 31 14 13 25 31 25 41 0 11 11 20 30 24 16
4 33 11 36 17 4 6 -2 8 -16 3 -14 -4 -20 -3 -16 3 9 15 -19 22 -53 12 -38 -11
-46 -2 -18 21 l22 19 -30 -6 c-36 -7 -75 -25 -75 -34 0 -4 11 -5 25 -2 30 5
42 -17 25 -48 -10 -19 -18 -22 -60 -18 -42 4 -47 3 -43 -13 4 -14 0 -16 -15
-12 -12 3 -39 -6 -64 -20 -54 -30 -75 -26 -75 14 0 50 -23 64 -109 64 -62 0
-72 2 -57 13 9 6 27 12 38 12 12 0 29 8 38 18 23 25 21 35 -3 22 -11 -6 -30
-8 -43 -4 -18 4 -29 -1 -43 -18 -21 -27 -60 -47 -47 -24 4 7 25 28 46 45 35
32 47 51 29 51 -5 0 -16 -6 -26 -13z"/>
<path d="M5849 4896 c-9 -11 -19 -31 -23 -43 -4 -13 -12 -23 -18 -23 -5 0 -8
7 -4 15 3 8 1 15 -4 15 -11 0 -13 -11 -4 -34 3 -9 10 -13 15 -10 11 7 11 -27
0 -45 -7 -10 -11 -9 -22 6 -15 20 -49 38 -49 25 0 -6 57 -44 70 -47 37 -6 49
-45 14 -45 -16 0 -19 -16 -4 -25 8 -5 7 -11 -1 -21 -13 -16 -5 -18 21 -4 12 6
16 17 13 30 -4 14 0 20 12 20 13 0 16 -6 12 -22 -3 -13 -8 -33 -10 -45 -4 -13
0 -24 9 -27 7 -3 11 -12 8 -20 -3 -8 0 -17 6 -21 8 -5 7 -11 -2 -22 -6 -8 -11
-28 -10 -44 1 -16 1 -29 -2 -29 -12 0 -76 31 -81 40 -4 6 -10 8 -15 5 -4 -3
-13 7 -19 22 l-11 28 6 -30 6 -30 -24 23 c-25 23 -48 29 -48 12 0 -5 8 -14 19
-19 18 -10 17 -12 -5 -58 -22 -44 -23 -51 -11 -85 14 -40 27 -59 27 -40 0 7 9
12 20 12 20 0 26 -22 14 -54 -7 -18 -31 -21 -36 -5 -5 15 -79 21 -95 7 -29
-24 -9 -108 26 -108 20 0 22 -24 6 -63 -13 -31 13 -49 69 -45 33 2 51 -1 53
-9 5 -13 -9 -16 -63 -13 -17 1 -36 -6 -43 -14 -7 -8 -20 -12 -29 -10 -14 5
-13 2 2 -10 11 -9 26 -16 34 -16 7 0 0 -12 -17 -26 -21 -18 -31 -34 -30 -52
l1 -27 7 25 c4 14 13 24 20 22 6 -1 21 2 31 8 25 13 25 12 0 -44 -10 -25 -15
-48 -11 -50 12 -8 21 5 21 31 0 28 8 29 27 6 13 -17 14 -16 9 5 -4 12 -9 31
-12 42 -3 13 -1 20 8 20 7 1 2 7 -12 15 -14 8 -19 14 -12 15 26 0 12 30 -15
31 -25 0 -26 1 -7 9 29 11 74 1 76 -19 0 -9 2 -20 3 -26 2 -5 3 -16 4 -22 0
-7 8 -13 16 -13 20 0 19 -9 -2 -33 -10 -11 -13 -17 -6 -14 22 14 26 -16 5 -34
-18 -14 -20 -22 -13 -41 6 -12 10 -17 10 -10 1 19 21 14 21 -5 0 -12 7 -8 21
15 16 25 20 41 14 68 -5 29 -9 33 -21 24 -22 -19 -17 5 6 25 11 10 20 24 20
32 0 7 5 13 10 13 6 0 10 -6 10 -14 0 -22 26 -38 64 -39 26 -1 33 -4 28 -16
-10 -30 -14 -31 -33 -9 -14 16 -22 19 -25 10 -3 -6 -10 -10 -15 -6 -5 3 -9 -1
-9 -9 0 -7 12 -20 28 -28 15 -8 29 -17 32 -21 3 -4 22 -3 43 1 22 6 37 5 37 0
0 -10 -8 -13 -55 -24 -26 -6 -28 -8 -12 -17 10 -5 25 -7 32 -4 8 3 17 1 20 -4
3 -5 -4 -12 -15 -15 -29 -9 -117 56 -104 77 3 4 0 8 -5 8 -14 0 -14 -37 -1
-45 19 -12 10 -26 -12 -20 -22 6 -22 6 -4 -9 22 -18 40 -21 31 -6 -4 7 3 8 22
4 38 -9 44 -14 37 -26 -5 -8 1 -9 17 -4 13 4 34 7 47 7 25 -1 26 2 10 29 -7
10 -9 23 -5 27 5 4 12 2 16 -5 6 -10 12 -7 24 12 9 13 27 26 39 28 16 2 24 11
28 33 5 25 7 27 13 12 4 -10 4 -30 1 -44 -4 -15 -2 -28 6 -33 8 -5 3 -13 -19
-26 -28 -16 -38 -37 -18 -35 4 1 14 1 22 1 8 0 15 7 15 15 0 8 7 15 16 15 11
0 14 -6 9 -22 -6 -17 -4 -20 10 -15 9 4 22 7 28 7 7 0 3 7 -7 15 -16 12 -17
18 -8 27 19 19 14 30 -10 23 -13 -3 -18 -3 -13 2 11 9 11 38 0 66 -4 10 -3 17
4 17 8 0 9 5 1 19 -15 29 -13 33 11 21 11 -6 25 -9 32 -7 7 2 -3 13 -22 23
-19 11 -49 31 -66 47 -18 15 -38 27 -44 27 -6 0 -11 4 -11 10 0 5 10 9 23 7
17 -2 23 4 25 26 2 19 11 31 28 38 37 13 64 11 64 -6 0 -20 16 -19 24 1 5 14
8 14 28 0 16 -11 25 -13 35 -4 16 13 17 50 1 66 -15 15 -8 21 24 24 24 2 25 3
11 25 -8 12 -23 25 -34 28 -10 4 -19 15 -19 26 0 11 -4 17 -10 14 -6 -4 -10 5
-10 20 0 14 -7 28 -15 31 -20 8 -19 44 1 44 11 0 14 -6 9 -21 -5 -15 -4 -19 4
-15 6 4 11 1 11 -6 0 -9 3 -9 10 2 7 10 13 11 18 5 10 -15 34 -13 40 3 2 7 -2
13 -9 11 -8 -1 -23 -1 -33 0 -16 1 -17 4 -8 13 17 17 15 33 -3 18 -11 -9 -15
-9 -15 -1 0 7 -4 10 -8 7 -4 -2 -14 -1 -22 4 -11 7 -10 13 5 36 18 27 18 28
-9 51 -15 13 -37 23 -48 23 -20 0 -20 -1 -5 -18 23 -25 22 -28 -15 -43 -18 -7
-46 -23 -61 -36 -37 -30 -49 -29 -74 5 l-21 29 48 12 c39 10 53 20 69 47 18
30 19 36 6 40 -17 7 -65 -21 -65 -38 0 -6 -8 -4 -18 5 -39 35 -82 5 -82 -56 0
-31 -4 -37 -20 -37 -13 0 -28 -12 -38 -30 -23 -40 -28 -38 -24 13 4 43 22 77
22 41 0 -16 2 -17 10 -4 14 22 12 58 -6 85 -18 27 -30 100 -14 90 5 -3 12 6
16 20 7 27 32 33 52 13 17 -17 25 12 12 47 -12 31 -6 45 12 27 15 -15 48 -16
48 -2 0 6 -8 10 -18 10 -10 0 -23 5 -30 12 -15 15 -16 48 -2 48 6 0 10 4 10
10 0 5 -6 7 -14 4 -8 -3 -21 4 -29 16 -10 14 -16 17 -19 9 -3 -8 -10 -6 -24 8
-29 30 -47 33 -65 9z m371 -452 c0 -8 -4 -12 -10 -9 -26 16 -25 -8 1 -37 17
-17 29 -38 27 -47 -4 -22 -42 -26 -58 -6 -20 25 -33 18 -26 -15 11 -56 -65
-149 -89 -110 -3 5 1 20 9 32 18 25 22 123 6 133 -18 11 2 35 31 35 18 0 34 8
41 20 16 25 68 28 68 4z m-207 -254 c11 -75 10 -86 -7 -122 -9 -17 -16 -33
-16 -35 0 -10 31 -1 45 13 9 9 19 13 23 9 4 -3 -2 -13 -13 -21 -11 -8 -20 -23
-20 -32 0 -11 -9 -17 -25 -18 -14 -1 -37 -5 -52 -9 -21 -5 -29 -2 -37 13 -9
17 -6 23 14 36 15 10 25 27 27 48 2 25 8 34 26 36 20 3 33 22 15 22 -13 0 -45
89 -39 106 4 9 15 14 28 12 20 -3 24 -11 31 -58z"/>
<path d="M3857 4709 c-3 -12 -2 -30 3 -40 6 -10 7 -25 4 -33 -8 -21 6 -20 22
2 11 14 13 14 14 2 0 -18 -57 -53 -65 -39 -4 5 -2 9 4 9 5 0 9 9 8 20 -2 27
-6 25 -18 -10 -6 -16 -17 -30 -25 -30 -16 0 -19 -16 -4 -25 8 -5 7 -11 -1 -21
-13 -16 -2 -18 20 -5 8 5 11 16 7 26 -4 11 -2 15 6 12 7 -2 14 -17 14 -33 2
-50 4 -55 14 -49 6 4 10 -7 10 -24 0 -18 5 -31 12 -31 7 0 2 -7 -10 -16 -25
-18 -30 -36 -6 -27 14 5 14 3 3 -16 -15 -23 -25 -26 -34 -11 -3 6 -13 10 -22
10 -9 0 -22 8 -29 18 -7 9 -18 17 -26 17 -7 0 -16 14 -19 30 -5 25 -7 26 -8 7
l-1 -24 -32 27 c-23 19 -34 23 -37 14 -2 -7 6 -19 17 -27 l21 -14 -24 -32
c-26 -34 -32 -70 -15 -81 6 -3 10 -17 10 -30 0 -20 5 -23 27 -22 22 2 29 -3
31 -21 4 -27 -26 -42 -42 -21 -6 8 -20 16 -31 17 -11 0 -35 4 -52 8 -29 5 -34
3 -43 -21 -14 -37 -4 -64 34 -97 25 -21 29 -29 19 -39 -36 -37 5 -82 74 -82
44 0 62 -9 63 -30 0 -8 -35 -4 -62 7 -9 4 -27 6 -40 3 -21 -4 -20 -4 5 -6 15
0 27 -6 27 -12 0 -5 10 -9 22 -7 15 2 23 -2 24 -12 0 -8 2 -27 2 -43 2 -20 9
-30 28 -38 26 -9 26 -10 8 -31 l-19 -22 25 15 c14 9 29 26 35 37 13 29 23 28
35 -2 5 -13 17 -29 27 -35 16 -9 16 -12 3 -21 -19 -13 -30 -13 -30 0 0 6 -5
10 -12 10 -6 0 -4 -8 6 -19 15 -16 15 -22 4 -41 -12 -19 -10 -24 25 -56 34
-31 39 -33 53 -19 16 15 34 12 34 -6 0 -6 -3 -8 -8 -5 -4 2 -15 -2 -25 -9 -16
-12 -14 -13 17 -12 37 1 38 3 19 55 -3 6 0 12 6 12 6 0 11 -6 12 -12 0 -7 4
-3 9 9 6 15 15 21 25 17 11 -5 15 0 15 17 0 13 5 31 11 39 8 11 9 1 6 -37 -2
-33 0 -53 6 -53 6 0 1 -9 -11 -20 -12 -12 -22 -25 -22 -30 0 -6 -6 -10 -13
-10 -7 0 -13 -9 -14 -21 -1 -14 3 -19 12 -15 11 4 17 -5 21 -32 6 -42 19 -61
51 -79 17 -10 22 -9 27 3 9 23 8 24 -20 24 -19 0 -28 8 -40 35 -17 41 -18 85
-3 85 6 0 9 7 5 15 -5 14 14 21 26 9 11 -11 -4 -43 -18 -37 -8 3 -14 0 -14 -6
0 -17 24 -13 42 8 12 14 13 22 5 30 -8 8 -8 14 1 23 16 16 15 31 -1 25 -9 -3
-13 13 -13 64 -1 64 0 68 17 58 30 -16 22 -1 -31 59 -55 61 -60 73 -30 65 14
-4 22 1 29 20 15 40 97 48 85 9 -5 -13 -2 -13 10 2 16 19 16 19 30 1 13 -18
14 -18 20 3 4 12 4 31 1 43 -5 14 -1 25 12 34 15 12 16 17 5 32 -6 10 -17 29
-23 43 -5 13 -15 27 -20 31 -7 4 -5 12 5 21 8 9 12 19 8 23 -4 5 1 5 11 2 54
-20 63 -18 101 17 20 20 45 36 54 37 14 0 13 2 -3 9 -33 14 -45 11 -45 -11 0
-12 -8 -23 -20 -26 -11 -3 -18 -9 -15 -13 9 -14 -16 -23 -28 -11 -6 6 -22 11
-35 11 -18 0 -23 4 -18 16 3 8 2 12 -4 9 -6 -3 -10 0 -10 8 0 8 -7 17 -15 21
-8 3 -15 1 -15 -4 0 -5 -6 -7 -14 -4 -8 3 -17 1 -20 -4 -3 -6 1 -13 10 -16 9
-3 14 -13 11 -20 -3 -8 1 -17 9 -20 14 -5 20 -46 7 -46 -4 0 -17 10 -30 22
-28 26 -38 19 -26 -19 17 -48 -39 -140 -62 -103 -3 5 0 20 6 32 14 26 12 117
-3 135 -15 18 0 33 33 33 20 0 29 5 29 16 0 12 7 15 26 11 18 -3 27 0 32 12 3
9 10 19 16 23 13 9 -31 58 -53 58 -12 0 -12 -3 -3 -12 17 -17 15 -26 -10 -34
-13 -4 -35 -16 -51 -28 -28 -21 -29 -21 -43 -2 -21 29 -18 35 21 51 35 15 61
48 50 65 -10 16 -33 12 -44 -7 -9 -17 -11 -17 -25 2 -23 30 -50 9 -54 -43 -2
-29 -8 -43 -21 -47 -10 -3 -24 -18 -31 -33 -11 -24 -13 -25 -19 -9 -9 24 -1
87 10 87 5 0 9 -7 9 -16 0 -8 5 -12 10 -9 16 10 12 53 -10 95 -11 22 -17 40
-14 40 4 0 -1 9 -10 19 -10 11 -13 22 -8 25 6 3 13 0 15 -6 3 -7 6 -2 6 11 1
20 5 22 26 17 27 -7 30 0 15 38 -5 14 -6 26 -2 26 18 0 6 66 -15 87 -13 12
-23 17 -23 11 0 -7 -4 -7 -14 1 -11 9 -15 7 -19 -10z"/>
<path d="M4588 4544 c23 -16 23 -16 3 -30 -26 -19 -18 -48 10 -34 15 8 17 7
13 -5 -4 -8 -9 -15 -13 -15 -13 0 -31 -49 -25 -65 7 -18 24 -20 24 -2 0 7 6
22 14 33 12 15 17 17 27 7 18 -18 39 -16 39 2 0 21 7 19 36 -12 l25 -28 -4 28
c-5 30 10 38 19 10 13 -43 25 -65 31 -59 4 3 1 12 -5 18 -7 7 -12 19 -12 28 0
22 -58 102 -69 96 -4 -3 -18 6 -29 19 -17 19 -32 25 -64 25 -42 0 -42 0 -20
-16z"/>
<path d="M4531 4517 c-14 -6 -27 -19 -29 -27 -5 -13 -3 -13 11 -1 15 12 17 11
17 -3 0 -9 -4 -16 -9 -16 -5 0 -7 -9 -4 -21 6 -20 -25 -59 -47 -59 -5 0 -10
-15 -10 -34 0 -40 -14 -53 -36 -35 -13 10 -13 15 0 34 12 19 12 24 -5 46 -10
13 -19 35 -19 48 l0 24 -20 -26 c-14 -18 -19 -34 -14 -51 5 -20 2 -26 -10 -26
-9 0 -16 -4 -16 -10 0 -5 7 -10 15 -10 8 0 19 -9 25 -19 14 -27 13 -34 -4 -28
-10 4 -13 1 -10 -8 3 -8 14 -17 25 -20 10 -4 19 -14 19 -23 0 -14 2 -14 13 2
12 16 14 16 26 2 16 -19 7 -50 -11 -40 -10 5 -10 4 -2 -6 17 -17 54 -3 54 20
0 16 5 18 28 14 30 -6 58 15 49 38 -2 7 3 25 11 40 14 25 14 29 0 45 -22 26
-30 103 -13 136 16 31 6 35 -34 14z"/>
<path d="M3237 4285 c-5 -10 -3 -14 4 -9 7 4 10 1 7 -7 -3 -8 -12 -12 -19 -11
-8 2 -11 0 -7 -3 4 -4 -9 -27 -29 -52 -20 -24 -33 -46 -31 -49 3 -3 15 6 26
20 23 30 32 33 32 11 0 -8 5 -15 11 -15 15 0 -8 -27 -34 -42 -14 -7 -22 -7
-27 2 -10 17 -30 3 -30 -21 0 -10 -4 -19 -9 -19 -8 0 -84 -127 -126 -210 l-18
-34 34 -28 c38 -32 57 -35 67 -10 8 18 52 24 65 7 4 -6 11 -4 17 7 7 10 22 16
43 16 17 -1 26 -3 20 -5 -18 -6 -16 -33 1 -33 13 0 15 -19 6 -55 -5 -22 1 -34
15 -29 9 4 15 0 15 -10 0 -9 5 -16 10 -16 12 0 13 10 1 29 -6 10 0 23 20 45
16 17 29 38 29 47 0 9 10 21 23 27 l22 11 -22 0 c-13 1 -23 -3 -23 -8 0 -5 -9
-11 -21 -14 -16 -4 -18 -3 -8 9 9 11 9 17 -1 29 -17 21 -27 19 -33 -6 -6 -23
-27 -17 -27 7 0 8 4 13 9 9 5 -3 12 -1 16 5 3 5 -2 10 -13 10 -10 0 -22 3 -26
7 -4 4 -15 8 -23 8 -9 0 -18 6 -20 13 -3 7 1 10 10 6 10 -3 17 2 20 13 4 16 6
15 12 -4 4 -13 15 -23 26 -23 11 0 19 -4 19 -10 0 -5 6 -10 14 -10 7 0 19 -7
26 -15 10 -12 16 -13 24 -5 8 8 6 15 -6 24 -25 18 -22 26 6 26 14 0 28 5 31
11 4 6 -2 9 -17 8 -12 -1 -36 -1 -52 -1 -24 2 -27 5 -23 24 3 12 2 30 -4 40
-8 15 -6 18 13 18 34 0 43 11 46 55 2 34 -1 41 -17 42 -13 1 -18 -3 -14 -13 3
-9 -2 -14 -16 -14 -29 0 -28 35 2 45 l22 8 -22 4 c-19 4 -21 8 -13 23 9 16 15
18 37 9 33 -12 50 2 29 24 -22 22 -20 29 7 22 20 -6 21 -5 5 8 -10 8 -14 17
-10 22 10 11 -61 -5 -76 -18 -19 -15 -27 0 -9 18 9 8 29 15 46 15 17 0 31 3
31 8 0 4 -17 6 -37 6 -21 -1 -41 3 -44 8 -3 5 -9 2 -12 -7z"/>
<path d="M7510 4180 c0 -5 6 -12 13 -17 8 -5 0 -10 -22 -13 -19 -3 -36 -11
-39 -18 -3 -9 3 -11 21 -7 37 10 60 -1 80 -34 13 -22 14 -32 6 -37 -8 -4 -9
-3 -5 4 5 8 0 12 -12 12 -26 0 -34 -23 -17 -47 8 -10 11 -30 8 -45 -3 -17 -1
-28 6 -28 6 0 11 6 11 13 0 9 3 8 9 -2 5 -7 6 -21 4 -31 -3 -13 7 -25 39 -44
26 -16 36 -26 25 -26 -10 0 -15 -4 -12 -10 10 -16 -33 -11 -61 6 -18 12 -28
14 -36 6 -6 -6 -17 -8 -25 -5 -8 3 -19 0 -24 -8 -8 -12 -10 -12 -18 0 -7 11
-11 9 -21 -10 -7 -13 -19 -28 -26 -32 -17 -10 2 -57 23 -57 8 0 11 -4 8 -10
-3 -5 -15 -10 -26 -10 -10 0 -19 -6 -19 -14 0 -8 -3 -21 -6 -29 -4 -11 1 -15
20 -13 15 0 24 6 22 12 -3 8 15 14 50 19 30 3 54 10 54 15 0 12 -46 21 -67 13
-14 -5 -12 -1 7 20 25 26 60 36 60 17 0 -5 -10 -10 -22 -10 -19 0 -17 -3 11
-17 24 -12 36 -14 38 -6 3 7 11 9 20 6 11 -4 14 -2 9 5 -4 7 -14 12 -23 12
-13 0 -13 3 -3 15 13 16 0 20 -65 17 -28 -2 -28 -1 -7 8 12 5 22 14 22 19 0 7
9 7 27 0 15 -5 37 -8 49 -5 29 8 124 -21 131 -39 3 -8 8 -13 12 -11 3 2 7 -7
7 -20 2 -19 -1 -22 -16 -14 -9 5 -25 21 -34 35 -9 14 -21 23 -26 20 -6 -4 -20
1 -32 9 -41 29 -44 16 -5 -19 35 -31 37 -34 18 -40 -12 -3 -25 -3 -31 0 -5 3
-10 2 -10 -3 0 -6 -12 -13 -26 -16 -15 -4 -24 -9 -22 -12 3 -2 17 0 32 5 35
14 33 4 -6 -31 -37 -33 -19 -38 30 -8 32 19 34 20 57 3 30 -22 31 -30 4 -38
-26 -9 -19 -31 10 -28 26 3 28 -13 2 -22 -24 -7 -37 -43 -22 -58 7 -7 16 -3
31 16 17 22 26 25 52 20 26 -5 30 -4 25 10 -8 22 16 23 33 2 14 -17 30 -20 30
-4 0 5 -4 7 -10 4 -6 -3 -7 1 -4 9 3 9 10 13 15 10 16 -9 10 13 -10 37 l-20
24 6 -25 c4 -22 3 -21 -16 8 -11 17 -28 32 -36 32 -18 0 -20 26 -3 36 6 4 18
-1 27 -12 9 -11 29 -29 45 -42 23 -17 31 -20 38 -10 5 9 8 8 8 -6 0 -16 2 -16
20 5 10 13 19 18 20 12 0 -7 5 -13 11 -13 5 0 7 5 4 10 -3 6 -1 10 4 10 6 0
11 7 11 15 0 17 16 20 25 5 3 -5 11 -10 17 -10 6 0 5 6 -3 16 -8 10 -21 13
-36 9 -13 -3 -23 -1 -23 4 0 5 12 12 26 15 20 5 24 11 18 29 -3 12 -8 24 -10
26 -5 6 -49 -40 -49 -52 -1 -7 -7 -11 -14 -9 -7 1 -20 -3 -27 -9 -11 -9 -18
-9 -26 -1 -7 7 -9 13 -5 13 4 1 10 2 15 3 4 1 24 12 45 24 31 20 37 29 37 59
0 31 -2 34 -15 23 -9 -7 -14 -18 -11 -25 2 -6 -5 -22 -15 -36 -13 -17 -19 -19
-19 -8 0 8 3 19 8 25 4 5 5 8 3 6 -2 -1 -12 5 -22 14 -14 13 -21 13 -36 4 -16
-10 -16 -11 0 -6 9 3 17 1 17 -5 0 -6 -8 -25 -17 -42 -10 -18 -19 -34 -20 -36
-1 -1 -7 0 -13 4 -8 5 -5 12 7 22 13 10 15 16 5 19 -6 3 -10 10 -7 14 3 5 -5
16 -17 24 -22 16 -22 16 -3 31 11 8 28 15 38 15 9 0 17 7 17 16 0 13 -7 15
-31 10 -18 -3 -38 -14 -46 -24 -13 -15 -14 -15 -9 0 3 9 0 19 -7 21 -9 3 -9
12 1 39 6 19 12 43 11 54 -1 15 -3 13 -8 -6 -4 -14 -14 -24 -21 -22 -7 2 -10
-3 -7 -12 8 -20 -4 -28 -21 -14 -11 10 -17 8 -28 -7 -8 -10 -14 -15 -15 -9 -1
15 -7 38 -14 55 -5 14 -1 16 25 13 25 -3 33 0 37 16 6 24 36 26 77 5 44 -23
58 -18 29 11 -23 23 -32 26 -75 22 -26 -3 -48 -4 -48 -2 0 2 10 13 23 24 l22
22 -30 -4 c-22 -2 -29 -8 -27 -20 2 -10 -1 -18 -6 -18 -10 0 -37 29 -31 33 27
18 60 28 70 22 8 -5 10 -4 5 4 -5 7 -18 11 -30 9 -12 -1 -35 5 -49 15 -15 10
-33 17 -40 16 -25 -3 -37 1 -37 14 0 7 11 13 26 12 18 0 28 6 30 17 3 24 -12
32 -20 11 -6 -15 -8 -15 -19 0 -13 18 -67 31 -67 17z"/>
<path d="M6416 4115 c-15 -8 -54 -15 -85 -16 -50 -1 -53 -2 -29 -12 50 -20 44
-56 -10 -57 -17 0 -26 8 -33 30 -11 31 -23 38 -34 19 -4 -6 1 -16 11 -24 11
-7 16 -17 12 -20 -4 -4 3 -16 15 -26 12 -10 17 -18 10 -19 -6 0 -15 5 -18 10
-3 6 -13 10 -22 10 -12 0 -13 -3 -4 -14 8 -10 9 -16 2 -21 -7 -4 -7 -12 2 -25
15 -25 39 -26 35 -2 -2 10 3 17 12 17 9 0 14 -7 12 -17 -4 -26 25 -12 32 15 6
21 7 20 33 -13 16 -19 29 -39 29 -45 1 -5 2 -14 3 -20 1 -5 6 -3 11 5 6 9 13
11 18 5 4 -5 16 -17 26 -25 18 -14 18 -13 12 8 -4 12 -4 22 1 22 4 0 15 4 23
10 12 7 10 12 -12 30 -15 11 -25 27 -22 34 3 7 -2 13 -11 13 -8 0 -15 -6 -15
-13 0 -13 -38 -39 -46 -31 -2 2 5 12 16 22 11 10 20 24 20 30 0 16 -27 27 -35
15 -4 -6 -1 -10 5 -10 7 0 10 -6 8 -12 -8 -24 -31 -13 -35 15 -2 16 0 26 5 23
6 -3 16 1 23 10 7 9 21 13 35 10 16 -4 23 -1 27 15 4 17 2 19 -16 13 l-22 -6
23 21 c12 12 22 26 22 31 0 13 0 13 -34 -5z"/>
<path d="M4289 3935 c-3 -2 -30 -6 -61 -7 -37 -1 -54 -6 -51 -14 2 -6 -3 -14
-11 -17 -10 -4 -16 -1 -16 8 0 9 -6 12 -15 9 -12 -5 -13 -10 -4 -20 6 -7 7
-19 3 -25 -4 -7 1 -18 11 -25 10 -8 15 -17 11 -21 -4 -4 -12 0 -17 10 -22 38
-29 17 -20 -60 0 -7 8 -13 17 -13 11 0 14 6 9 20 -5 14 -2 20 9 20 9 0 16 -7
16 -15 0 -8 7 -15 15 -15 8 0 12 6 9 14 -10 27 17 27 38 1 12 -15 26 -32 33
-38 7 -6 10 -19 7 -29 -3 -14 0 -17 12 -12 11 4 16 1 16 -10 0 -9 5 -16 10
-16 6 0 10 4 10 9 0 5 10 11 22 14 l22 6 -23 25 c-16 17 -21 31 -16 45 9 28
-9 27 -28 -1 -15 -22 -16 -22 -33 -5 -18 16 -17 17 9 17 33 0 37 29 7 48 -16
10 -20 10 -20 -2 0 -8 6 -17 13 -19 6 -3 1 -6 -13 -6 -20 -1 -26 4 -28 22 -1
19 6 26 35 35 31 9 38 9 48 -5 11 -14 13 -14 18 6 4 16 1 21 -13 21 -11 0 -22
5 -25 10 -3 6 3 10 13 10 11 0 22 7 26 15 4 11 -1 15 -18 15 -12 0 -25 -2 -27
-5z"/>
<path d="M5710 3853 c0 -25 -15 -31 -23 -9 -5 11 -21 13 -60 7 -5 0 -5 -6 -2
-12 4 -6 -2 -17 -14 -25 -31 -22 -25 -35 14 -28 20 3 35 1 35 -5 0 -5 9 -12
19 -16 28 -9 34 -32 7 -31 -15 1 -20 -4 -18 -16 2 -10 -3 -18 -9 -18 -8 0 -7
-6 4 -17 10 -12 13 -28 10 -45 -5 -28 11 -40 20 -15 3 6 6 -2 6 -18 1 -25 8
-33 39 -47 33 -15 34 -17 12 -18 -14 -1 -19 -4 -12 -7 6 -2 12 -9 12 -14 0
-12 -37 -12 -45 1 -9 15 -18 12 -49 -17 -25 -23 -30 -24 -37 -10 -14 23 -39
47 -51 47 -7 0 -7 -4 1 -13 9 -11 5 -13 -19 -12 -19 1 -30 -3 -30 -12 0 -10
12 -13 43 -11 38 3 42 1 46 -22 3 -24 2 -24 -16 -7 -16 14 -27 16 -59 9 -35
-8 -37 -10 -17 -18 12 -5 22 -13 22 -19 0 -5 4 -11 10 -13 6 -2 11 6 11 17 0
12 4 21 9 21 16 0 24 -21 13 -32 -14 -14 7 -60 25 -54 7 3 13 1 13 -5 0 -5
-11 -14 -23 -18 -18 -7 -24 -17 -25 -42 0 -22 2 -29 10 -21 6 6 17 8 26 5 10
-4 13 -2 8 5 -4 6 13 24 39 42 53 36 56 45 15 37 -28 -6 -29 -5 -20 19 5 13 9
28 8 32 -1 4 1 17 6 30 6 17 13 21 31 16 12 -3 26 -1 29 5 8 12 57 14 91 5 25
-6 51 -54 30 -54 -8 0 -20 8 -27 18 -7 11 -20 19 -28 20 -8 0 -26 4 -40 7 -23
6 -22 4 10 -23 31 -27 33 -31 17 -38 -25 -9 -68 12 -61 29 4 11 -1 13 -21 10
-29 -6 -44 -23 -21 -23 21 0 20 -9 -1 -27 -10 -8 -12 -12 -5 -8 7 4 19 1 27
-5 12 -10 16 -9 21 3 3 9 12 13 21 10 12 -5 9 -11 -14 -30 l-28 -25 28 17 c40
23 44 13 11 -31 -26 -33 -26 -36 -7 -26 12 7 31 25 43 41 11 17 36 36 55 42
19 7 35 17 35 21 0 15 15 8 28 -13 17 -27 10 -34 -18 -19 -16 9 -25 9 -33 1
-6 -6 -20 -11 -31 -11 -21 -1 -21 -1 -2 -15 19 -14 19 -15 1 -35 -14 -16 -16
-23 -7 -32 8 -8 12 -8 12 -1 0 6 9 13 20 16 11 3 20 1 20 -4 0 -5 -6 -9 -13
-9 -20 0 -49 -57 -42 -81 6 -19 9 -16 26 20 12 29 24 41 39 41 11 0 20 7 20
15 0 8 4 15 9 15 5 0 14 -7 21 -15 19 -23 33 -18 28 10 -7 33 8 22 28 -20 15
-33 34 -47 34 -25 0 6 -4 10 -9 10 -5 0 -13 10 -16 23 -4 12 -20 39 -36 59
-35 45 -38 60 -4 28 15 -14 32 -21 44 -17 16 4 21 -2 29 -32 8 -30 10 -32 11
-10 1 18 13 33 42 52 43 29 65 33 89 17 12 -8 12 -12 2 -18 -7 -5 -10 -16 -6
-26 6 -14 2 -17 -17 -15 -60 7 -94 -35 -71 -86 15 -32 -7 -52 -38 -35 -29 16
-91 9 -104 -12 -8 -13 -6 -21 7 -36 22 -24 21 -29 -3 -35 -14 -4 -20 -14 -20
-34 0 -35 16 -53 47 -53 12 0 27 -9 32 -19 6 -10 24 -24 40 -29 16 -6 37 -22
46 -36 19 -28 40 -34 48 -13 4 9 8 9 15 -2 7 -9 32 -13 78 -13 38 0 62 -3 54
-7 -18 -7 -23 -41 -6 -41 6 0 50 5 96 10 47 6 108 13 135 16 28 3 51 10 53 15
2 4 16 6 32 3 15 -4 36 -1 47 5 16 10 17 10 1 11 -10 0 -18 4 -18 10 0 5 -14
7 -32 4 -25 -4 -29 -3 -18 5 8 6 24 11 35 11 15 0 16 3 7 12 -18 18 -14 28 11
28 13 0 28 5 34 11 14 14 6 70 -11 81 -18 13 -24 9 -19 -11 5 -18 -20 -36 -37
-26 -12 7 0 43 16 49 8 3 14 10 14 16 0 8 -6 8 -20 0 -23 -12 -25 -3 -5 24 7
10 19 15 24 11 6 -3 21 -3 33 1 l22 7 -22 17 c-28 23 -28 30 1 31 17 1 18 2 4
6 -9 2 -15 9 -12 14 14 22 -38 -2 -72 -34 -13 -11 -23 -16 -23 -11 1 16 26 43
51 53 22 9 20 9 -13 9 -23 -1 -35 -5 -32 -13 6 -13 -9 -26 -48 -43 -23 -10
-28 -9 -28 3 0 9 10 15 26 15 19 0 28 7 35 30 9 24 17 30 40 30 16 0 29 4 29
9 0 5 -18 7 -40 4 -43 -6 -49 0 -24 24 8 9 13 25 10 36 -2 11 2 26 10 34 8 8
14 30 14 49 0 21 5 34 13 34 7 0 22 7 33 16 15 12 16 15 2 10 -9 -3 -18 0 -21
7 -3 9 -13 9 -42 0 -47 -15 -54 -10 -29 18 19 22 19 22 -6 14 -14 -4 -40 -21
-58 -36 -33 -29 -28 -38 9 -18 15 7 24 7 34 -1 12 -10 12 -16 -1 -42 -13 -26
-20 -29 -52 -26 -30 2 -36 -1 -34 -15 2 -9 -3 -17 -11 -17 -8 0 -31 -16 -51
-35 -45 -42 -76 -46 -76 -11 0 14 -11 37 -24 53 -23 26 -29 28 -105 28 -44 0
-77 3 -72 8 4 4 21 9 37 10 29 2 74 33 74 51 0 6 -5 5 -12 -2 -7 -7 -31 -12
-54 -12 -33 0 -46 -5 -59 -22 -9 -13 -26 -23 -40 -23 -35 -1 -31 12 8 29 17 7
43 26 57 41 l25 28 -30 -7 c-24 -6 -28 -5 -17 5 6 7 12 19 12 27 0 9 -13 2
-36 -18 -32 -27 -38 -30 -53 -17 -35 30 -44 31 -38 5 5 -17 1 -31 -13 -45 -10
-12 -16 -24 -13 -27 4 -3 -1 -6 -10 -6 -22 0 -22 9 0 25 15 11 14 15 -11 38
-34 32 -29 52 14 60 33 7 33 27 0 27 -30 0 -50 -11 -51 -29 0 -10 -4 -7 -10 9
-7 17 -7 32 0 48 6 13 11 33 10 45 0 19 -2 19 -11 -5 -5 -16 -14 -28 -19 -28
-4 0 -6 -7 -2 -16 5 -13 2 -15 -17 -9 l-22 7 23 -33 c13 -18 32 -42 41 -53 10
-11 16 -22 13 -24 -8 -9 -43 28 -56 59 -7 19 -17 28 -25 25 -9 -3 -14 2 -14
13 0 11 -3 27 -6 36 -4 9 -3 15 2 14 26 -4 42 4 53 27 12 27 23 28 91 9 24 -7
24 -7 -6 25 -29 29 -33 31 -55 18 -13 -7 -27 -17 -31 -23 -5 -6 -8 -4 -8 4 0
8 8 23 17 33 12 14 14 21 5 28 -7 6 -10 7 -7 3 3 -3 -4 -12 -15 -20 -11 -8
-17 -20 -14 -28 8 -19 -10 -19 -26 0 -10 12 -9 16 4 21 9 4 21 16 28 28 8 17
8 19 -2 9 -10 -9 -18 -8 -36 4 -13 8 -33 13 -44 10 -24 -6 -25 -3 -4 28 12 18
13 29 5 42 -9 16 -10 16 -11 -4z"/>
<path d="M3540 3803 c0 -6 5 -15 10 -18 6 -3 10 -11 10 -16 0 -6 -4 -8 -9 -5
-11 7 -48 -21 -39 -30 4 -4 21 -7 37 -6 17 0 36 -8 48 -21 11 -12 32 -31 47
-41 14 -10 26 -24 26 -30 0 -6 -4 -4 -10 4 -5 8 -12 11 -16 7 -4 -4 -12 1 -19
10 -15 20 -37 9 -28 -14 4 -11 3 -14 -5 -9 -17 10 -15 -10 2 -26 10 -10 11
-18 3 -36 -8 -16 -7 -26 1 -34 9 -9 12 -8 12 6 0 9 5 14 10 11 6 -3 10 -22 10
-41 0 -19 3 -33 8 -31 9 2 62 -38 62 -47 0 -4 -10 -2 -22 4 -23 11 -23 11 -3
-5 25 -21 95 -57 95 -50 0 3 -7 22 -15 42 -8 19 -15 38 -15 42 1 9 40 -42 40
-52 0 -9 15 -28 44 -57 23 -23 6 -27 -27 -6 -12 7 -51 26 -87 42 -36 15 -76
36 -89 46 -17 13 -27 15 -36 8 -7 -6 -20 -8 -29 -4 -9 3 -16 2 -16 -2 0 -13
84 -45 101 -39 8 3 23 -2 34 -10 19 -16 19 -16 -5 -9 -29 7 -26 2 9 -16 15 -8
21 -8 17 -1 -11 18 21 13 66 -10 26 -13 37 -24 29 -28 -7 -5 4 -15 31 -26 24
-10 64 -34 89 -52 26 -18 54 -33 63 -33 18 0 57 -18 66 -30 8 -10 92 -42 97
-36 4 4 -11 20 -59 60 -11 10 -18 11 -20 4 -3 -8 -10 -8 -25 1 -12 6 -32 11
-45 11 -17 0 -24 6 -25 21 -2 17 1 18 12 9 11 -9 23 -9 50 0 49 16 44 27 -15
26 -36 -1 -53 -6 -63 -20 -14 -19 -43 -14 -32 5 4 5 1 9 -5 9 -13 0 -46 30
-33 30 4 0 1 5 -7 10 -8 5 -15 14 -15 20 0 6 -6 15 -14 20 -19 11 1 37 31 42
12 2 23 9 26 16 6 18 -67 10 -79 -9 -7 -11 -9 -11 -9 3 0 9 -6 18 -12 21 -10
3 -10 9 1 28 19 33 31 79 20 79 -5 0 -9 -6 -9 -12 -1 -7 -10 -24 -21 -37 -14
-18 -23 -21 -31 -13 -8 8 -15 6 -27 -6 -15 -15 -16 -13 -19 14 -2 16 -8 34
-14 41 -8 9 -1 11 27 8 29 -4 40 -1 54 17 l18 22 42 -22 c39 -21 80 -31 55
-14 -6 4 -17 18 -23 31 -12 21 -18 23 -61 19 -52 -5 -60 9 -17 30 12 6 16 11
10 11 -7 1 -13 8 -13 17 0 13 -5 11 -24 -7 -15 -14 -20 -26 -14 -30 7 -4 6 -9
-1 -14 -14 -8 -41 12 -41 31 0 7 6 11 13 8 7 -2 22 4 32 16 10 11 13 20 7 20
-6 0 -13 -4 -17 -9 -3 -5 -17 1 -32 15 -14 13 -37 24 -50 24 -36 0 -63 18 -60
40 4 26 17 38 18 17 3 -37 5 -42 19 -39 24 5 32 18 27 43 l-4 24 -8 -22 -7
-22 -19 22 c-10 12 -18 18 -19 13 0 -6 -7 -1 -16 10 -15 18 -15 18 -10 0 6
-17 5 -17 -11 -5 -10 8 -21 19 -25 24 -5 6 -8 6 -8 -2z"/>
<path d="M7597 3637 c-28 -11 -31 -27 -7 -35 7 -3 10 0 6 7 -4 6 -2 11 3 11
13 0 14 -11 2 -43 -12 -32 -64 -59 -82 -43 -9 8 -11 7 -6 -6 4 -10 2 -18 -3
-18 -6 0 -10 -6 -10 -14 0 -8 -7 -22 -16 -31 -12 -12 -19 -13 -30 -4 -19 15
-18 35 2 43 13 5 13 9 -5 32 -12 15 -21 34 -21 42 0 13 -3 12 -20 -3 -13 -12
-18 -25 -14 -40 5 -20 2 -22 -20 -18 -15 3 -26 1 -26 -6 0 -5 6 -8 13 -5 7 2
22 -5 32 -16 15 -16 16 -23 6 -33 -9 -9 -14 -9 -20 2 -6 10 -13 11 -27 3 -17
-10 -16 -12 11 -22 22 -9 44 -10 84 -1 66 13 79 8 18 -8 -25 -6 -47 -18 -51
-26 -3 -8 -1 -15 3 -15 5 0 11 5 13 12 3 7 23 13 49 13 39 0 44 2 44 24 0 21
9 28 48 42 26 9 47 13 47 9 0 -5 -9 -11 -19 -15 -21 -6 -25 -45 -5 -45 18 0
64 40 64 56 0 8 -6 17 -13 20 -20 7 -14 100 8 124 18 19 17 20 -6 19 -13 -1
-36 -6 -52 -12z"/>
<path d="M6910 3538 c-16 -18 -23 -20 -29 -9 -5 7 -17 11 -27 9 -33 -6 -39
-49 -25 -185 7 -70 14 -129 15 -130 2 -2 16 4 33 12 24 12 32 24 37 55 3 23 1
50 -6 65 -10 21 -9 28 2 35 7 4 18 6 25 4 6 -3 20 4 30 16 19 21 65 28 65 10
0 -5 -9 -10 -20 -10 -11 0 -20 -4 -20 -10 0 -5 4 -10 10 -10 5 0 7 -8 3 -17
-5 -15 -3 -16 7 -6 11 10 16 9 26 -5 29 -38 -1 -64 -43 -36 -30 19 -32 17 -26
-23 l5 -32 30 15 c16 9 32 14 34 11 2 -2 -15 -12 -38 -23 -40 -17 -61 -34 -53
-42 1 -2 26 8 54 22 28 14 55 26 61 26 6 0 19 8 28 17 16 15 15 16 -12 9 -26
-6 -28 -5 -17 8 13 16 6 56 -10 56 -5 0 -9 7 -9 15 0 8 7 15 15 15 9 0 12 -6
9 -15 -4 -8 -1 -15 6 -15 6 0 8 -4 5 -10 -3 -5 1 -10 9 -10 9 0 16 -6 16 -14
0 -9 7 -12 20 -9 26 7 26 23 0 23 -14 0 -19 6 -17 20 2 11 6 23 10 26 14 14 7
26 -8 14 -10 -9 -15 -9 -15 -1 0 6 -9 11 -19 11 -23 0 -36 16 -20 25 5 4 8 13
5 21 -3 8 0 11 10 7 27 -10 14 12 -21 35 -18 13 -39 21 -46 17 -8 -6 -7 -10 5
-17 23 -13 20 -25 -10 -32 -14 -4 -36 -17 -49 -30 -36 -36 -54 -39 -76 -14
-25 31 -24 32 17 47 37 13 97 65 87 75 -13 13 -43 5 -63 -16z"/>
<path d="M4980 3431 c0 -8 -6 -11 -16 -7 -10 4 -22 -1 -30 -11 -18 -24 -17
-43 1 -43 11 0 15 -8 13 -27 -5 -46 -39 -70 -52 -37 -5 14 -4 15 9 4 12 -10
15 -10 15 4 0 12 -7 16 -20 14 -10 -2 -25 5 -32 14 -9 13 -17 15 -28 8 -13 -8
-13 -10 2 -10 19 0 42 -35 33 -50 -4 -6 -10 -8 -14 -6 -4 3 -7 -10 -7 -29 0
-30 2 -32 18 -24 13 7 17 16 12 31 -4 15 -2 19 7 16 18 -6 24 -48 10 -58 -15
-9 -3 -40 15 -40 8 0 14 -10 14 -25 0 -14 5 -25 12 -25 6 0 3 -9 -8 -21 -14
-16 -16 -22 -5 -28 9 -6 10 -14 4 -25 -9 -16 -11 -16 -22 -2 -8 9 -21 16 -30
16 -9 0 -24 12 -33 28 -10 16 -18 21 -18 12 0 -13 -1 -13 -10 0 -13 20 -13 53
0 45 6 -3 10 3 10 14 0 10 3 28 6 38 5 15 4 15 -5 3 -8 -12 -14 -6 -30 30 -23
53 -27 43 -6 -18 8 -23 12 -54 9 -68 l-6 -24 -24 25 c-21 23 -44 33 -44 20 0
-3 12 -17 27 -31 24 -22 26 -27 12 -35 -26 -14 -43 -64 -30 -87 6 -12 11 -30
11 -42 0 -11 6 -20 13 -19 25 3 35 -1 39 -19 4 -12 27 -22 84 -36 43 -10 102
-25 129 -32 28 -7 70 -16 94 -19 l44 -7 -7 28 c-15 61 -13 69 16 66 19 -2 30
3 38 18 13 24 50 24 58 1 3 -10 0 -12 -11 -8 -9 3 -20 0 -27 -7 -8 -11 -5 -15
13 -20 14 -3 30 -18 37 -35 21 -52 -14 -72 -45 -25 -11 18 -20 23 -27 16 -13
-13 -1 -49 20 -57 34 -14 112 -18 112 -6 0 6 -7 14 -15 17 -8 4 -15 14 -15 24
0 10 -7 25 -15 34 -20 19 -19 46 1 46 11 0 14 -6 9 -21 -5 -16 -4 -19 6 -14 9
6 11 3 6 -8 -4 -11 -1 -17 8 -17 8 0 15 5 15 10 0 6 5 10 11 10 5 0 7 -5 3
-11 -4 -8 1 -9 17 -4 31 9 31 9 52 0 11 -5 23 -3 30 5 9 10 9 12 -4 7 -9 -3
-26 1 -37 9 -12 8 -22 10 -24 4 -3 -11 -58 1 -58 13 0 4 0 14 0 23 0 10 -6 14
-14 11 -8 -3 -20 1 -27 10 -11 13 -10 18 9 33 l22 18 -35 31 c-35 30 -65 40
-65 22 0 -6 5 -13 10 -16 18 -11 10 -23 -20 -30 -17 -4 -36 -15 -43 -26 -15
-25 -53 -24 -67 0 -15 28 -14 29 28 42 43 12 78 59 59 78 -17 17 -34 13 -57
-11 -19 -21 -21 -21 -33 -4 -22 31 -57 12 -57 -30 0 -26 -9 -43 -39 -74 -23
-24 -42 -36 -46 -30 -3 5 -2 10 2 10 5 0 7 15 5 34 -2 18 1 37 7 40 6 4 11 0
11 -9 0 -9 5 -13 10 -10 17 10 11 58 -12 102 -22 41 -22 41 -3 82 13 31 23 40
34 36 38 -15 39 -14 27 38 -4 16 -2 27 4 27 5 0 10 -4 10 -10 0 -5 7 -10 15
-10 22 0 18 17 -5 23 -26 7 -36 35 -21 60 11 17 11 19 -3 14 -9 -4 -16 -3 -16
1 0 15 -29 48 -30 33z"/>
<path d="M5758 3307 c-34 -29 -36 -34 -23 -51 22 -29 19 -39 -25 -82 -28 -28
-38 -45 -34 -60 7 -26 -21 -53 -38 -36 -9 9 -7 17 6 31 17 19 17 21 -10 55
-28 34 -29 35 -40 15 -6 -12 -9 -33 -6 -47 4 -21 2 -24 -14 -18 -10 4 -15 4
-11 0 4 -4 -1 -13 -11 -21 -16 -13 -15 -13 6 -8 13 4 29 1 37 -5 18 -15 8 -42
-14 -36 -19 6 -49 -10 -38 -20 4 -4 22 -7 41 -6 31 1 35 -2 38 -26 2 -18 10
-28 24 -30 22 -3 72 38 67 55 -2 6 8 13 21 17 17 4 28 15 32 34 3 15 13 44 21
64 11 26 13 42 6 50 -18 22 -22 82 -8 121 7 20 12 37 11 37 0 -1 -18 -15 -38
-33z"/>
<path d="M4340 3292 c-13 -2 -37 -14 -52 -27 l-28 -24 35 6 c26 4 36 2 41 -11
11 -29 -16 -49 -58 -43 -32 4 -38 2 -38 -13 0 -13 -5 -17 -20 -13 -16 4 -18 8
-9 19 7 8 9 17 6 21 -7 6 -37 -15 -37 -26 0 -9 57 -37 122 -61 l47 -18 25 37
c14 20 26 45 26 54 0 9 6 17 13 17 7 0 22 7 33 16 12 10 14 14 4 11 -8 -2 -21
3 -29 11 -9 9 -25 12 -48 7 -37 -7 -45 7 -11 22 26 11 13 21 -22 15z"/>
<path d="M4362 2540 c-106 -91 -115 -122 -127 -410 -3 -91 -10 -194 -15 -230
-30 -226 -34 -292 -22 -375 16 -112 46 -224 78 -296 48 -105 167 -191 246
-175 39 8 104 51 129 86 38 52 90 373 88 550 -1 110 -17 97 -19 -15 -1 -75
-10 -95 -57 -127 -37 -24 -150 -24 -218 -1 -107 38 -181 152 -190 292 -3 41
-2 57 3 41 6 -19 10 -6 15 55 8 86 10 100 31 215 8 41 17 101 21 133 8 67 38
140 87 212 38 55 53 105 32 105 -7 0 -44 -27 -82 -60z"/>
<path d="M5958 1168 c-3 -60 0 -76 31 -140 41 -85 63 -175 59 -244 -4 -79 -25
-93 -145 -100 -107 -5 -125 4 -116 59 7 43 -16 67 -63 67 -36 0 -39 -5 -25
-42 6 -16 5 -32 -4 -48 -12 -22 -18 -23 -81 -21 -47 1 -73 7 -80 17 -6 8 -17
63 -23 122 -10 89 -10 122 2 197 8 50 14 92 12 93 -8 8 -27 -44 -40 -106 -15
-69 -7 -218 14 -300 6 -21 10 -77 9 -127 0 -78 4 -101 31 -170 39 -102 97
-168 161 -185 53 -14 178 -7 256 15 122 35 181 202 135 382 -12 45 -21 111
-21 147 0 58 -25 170 -82 374 -14 50 -27 54 -30 10z"/>
</g>
</svg>
